<?xml version="1.0" standalone="no"?>
<!DOCTYPE svg PUBLIC "-//W3C//DTD SVG 20010904//EN"
 "http://www.w3.org/TR/2001/REC-SVG-20010904/DTD/svg10.dtd">
<svg version="1.0" xmlns="http://www.w3.org/2000/svg"
 width="7801.000000pt" height="3121.000000pt" viewBox="0 0 7801.000000 3121.000000"
 preserveAspectRatio="xMidYMid meet">
<metadata>
Created by potrace 1.15, written by Peter Selinger 2001-2017
</metadata>
<g transform="translate(0.000000,3121.000000) scale(0.100000,-0.100000)"
fill="#000000" stroke="none">
<path d="M0 15611 l0 -15599 4523 -7 c2487 -4 7039 -5 10116 -2 5111 5 5595 7
5611 22 16 15 24 14 101 -6 l84 -21 6990 6 c3845 3 8194 6 9665 6 l2675 0 1
42 c1 35 8 48 38 75 47 43 97 45 149 6 30 -23 37 -36 43 -76 l7 -47 1238 0
c1230 0 1239 0 1239 20 0 17 7 20 40 20 22 0 40 3 40 8 0 8 49 32 67 32 7 0
13 9 13 20 0 17 7 20 40 20 22 0 40 5 40 10 0 6 9 10 20 10 11 0 20 5 20 10 0
6 9 10 20 10 11 0 20 5 20 10 0 6 9 10 19 10 11 0 23 -4 26 -10 4 -6 -5 -10
-19 -10 -14 0 -26 -4 -26 -10 0 -5 -9 -10 -20 -10 -13 0 -20 -7 -20 -20 0 -13
7 -20 20 -20 11 0 20 -4 20 -10 0 -5 -9 -10 -20 -10 -11 0 -20 5 -20 10 0 6
-9 10 -20 10 -16 0 -20 -7 -20 -30 0 -28 -2 -30 -40 -30 -22 0 -40 -4 -40 -10
0 -5 -6 -10 -14 -10 -8 0 -18 -5 -21 -10 -4 -6 30 -10 94 -10 94 0 101 1 101
20 0 17 7 20 40 20 33 0 40 3 40 20 0 17 7 20 40 20 33 0 40 3 40 20 0 17 7
20 40 20 33 0 40 3 40 20 0 17 7 20 40 20 22 0 40 5 40 11 0 7 17 10 45 7 41
-3 46 -1 51 19 4 14 14 23 24 23 11 0 21 4 25 10 3 5 11 8 18 6 7 -1 9 -1 5 1
-20 12 -4 23 32 23 22 0 40 5 40 10 0 6 18 10 40 10 33 0 40 3 40 20 0 11 5
20 11 20 6 0 17 7 25 15 9 8 26 15 38 15 13 0 40 7 59 15 20 8 52 15 71 15 19
0 36 4 38 9 2 4 75 10 163 13 88 3 153 3 145 0 -8 -3 -21 -11 -28 -19 -7 -7
-20 -13 -28 -13 -8 0 -14 -5 -14 -11 0 -7 11 -9 29 -6 15 3 51 9 80 13 33 4
51 11 51 20 0 9 12 14 33 14 17 0 54 7 81 15 26 8 53 12 59 8 6 -4 8 0 4 10
-4 11 -2 14 8 10 10 -3 12 -11 7 -21 -5 -10 -7 -34 -5 -56 4 -43 -10 -66 -41
-67 -20 0 -20 -1 2 -9 13 -6 22 -17 20 -26 -3 -18 28 -29 38 -13 3 5 0 8 -8 7
-7 -2 -12 5 -12 14 1 10 -2 15 -7 12 -5 -3 -9 -1 -9 4 0 17 13 22 28 9 13 -10
14 -9 7 2 -7 13 -10 69 -4 89 1 4 2 16 3 27 1 12 8 20 19 20 10 0 25 8 32 18
7 10 19 15 29 11 9 -3 16 -2 16 3 0 5 7 10 15 10 8 0 15 -5 15 -10 0 -6 3 -8
6 -4 10 10 64 -14 58 -26 -5 -9 -4 -9 6 0 13 12 5 37 -10 28 -5 -3 -11 -1 -14
4 -4 6 9 9 29 8 23 -1 35 -7 36 -17 0 -13 1 -13 7 0 9 19 33 25 26 7 -4 -11
12 -11 93 -1 138 19 233 18 233 -1 0 -7 -7 -18 -16 -23 -9 -5 -14 -14 -10 -21
10 -15 26 -14 26 2 0 11 29 15 117 20 64 4 119 10 122 15 10 14 120 23 141 12
29 -15 25 -40 -5 -40 -16 0 -25 -6 -25 -15 0 -9 9 -15 25 -15 20 0 25 -5 25
-27 l0 -26 118 8 c64 5 146 8 182 8 36 -1 117 5 180 13 131 16 258 18 280 4
12 -8 9 -10 -11 -10 -25 0 -26 -2 -28 -65 l-2 -65 40 0 c30 0 41 4 41 15 0 11
11 15 40 15 22 0 40 5 40 10 0 6 33 10 80 10 64 0 80 3 80 15 0 13 38 15 280
15 l280 0 0 -23 c0 -29 -29 -57 -57 -57 -12 0 -24 -7 -27 -16 -5 -14 -7 -14
-22 0 -8 9 -19 16 -24 16 -5 0 1 -10 13 -22 12 -13 24 -20 25 -15 2 4 42 7 88
7 68 0 84 3 84 15 0 13 29 15 199 15 135 0 201 -4 203 -11 4 -11 42 -21 168
-44 165 -29 150 -23 150 -66 l0 -39 -122 -2 c-68 -1 -104 -3 -80 -5 23 -2 42
-8 42 -14 0 -5 18 -9 40 -9 36 0 40 -2 40 -25 l0 -25 160 0 c136 0 160 2 160
15 0 12 -17 15 -82 17 -46 1 -64 3 -40 5 23 2 42 8 42 14 0 10 89 12 179 3 68
-8 83 -24 21 -24 -29 0 -40 -4 -40 -15 0 -14 50 -15 428 -15 l428 1 28 29 c33
35 87 48 130 31 17 -7 37 -13 44 -14 6 0 10 -2 7 -5 -2 -3 0 -13 6 -23 9 -18
77 -19 2451 -19 l2440 0 467 80 c380 66 1264 231 1576 295 59 12 514 100 705
136 30 6 86 17 124 25 37 8 72 11 77 8 6 -3 16 -1 23 5 10 9 73 20 126 23 8 0
21 5 27 11 9 6 13 6 13 -1 0 -15 33 -9 47 8 8 9 12 10 13 3 0 -11 41 -2 82 18
11 6 18 5 18 0 0 -12 -56 -31 -66 -23 -4 4 -4 2 -1 -5 4 -6 16 -9 26 -6 10 3
21 1 24 -4 3 -5 -5 -10 -18 -11 -13 -1 -27 3 -30 8 -3 6 -11 10 -16 10 -6 0
-7 -5 -3 -12 5 -8 2 -9 -9 -5 -22 8 -47 -2 -47 -19 0 -10 12 -14 40 -14 22 0
40 -4 40 -10 0 -18 77 -12 84 6 6 15 8 15 26 -1 21 -19 27 -45 10 -45 -5 0
-10 -13 -10 -30 0 -32 -9 -37 -28 -18 -9 9 -12 7 -12 -9 0 -12 5 -23 11 -25 5
-2 14 -20 18 -40 l9 -36 -60 -7 c-42 -5 -61 -12 -64 -24 -3 -9 -10 -24 -15
-34 -7 -13 -5 -17 11 -17 11 0 20 -4 20 -10 0 -5 -18 -10 -40 -10 -22 0 -40 5
-40 10 0 19 -27 10 -39 -14 -9 -17 -10 -29 -3 -43 12 -22 1 -45 -19 -43 -8 1
-36 2 -62 1 l-48 -1 6 -40 6 -40 -50 0 c-47 0 -81 -17 -81 -40 0 -18 7048 -24
15508 -14 l5662 7 0 15599 0 15598 -39000 0 -39000 0 0 -15599z m12078 109
c46 -43 52 -71 27 -120 -9 -17 -18 -30 -20 -30 -12 0 -145 145 -142 155 5 14
48 35 73 35 11 0 39 -18 62 -40z m26641 -156 c27 -96 -59 -170 -155 -134 l-28
11 79 79 c44 44 83 80 87 80 4 0 12 -16 17 -36z m-14396 -76 c19 -39 15 -48
-56 -115 -60 -57 -76 -59 -123 -16 l-27 25 78 78 c86 87 98 89 128 28z m25157
-358 l0 -90 -210 0 -210 0 0 -545 0 -545 -95 0 -95 0 0 545 0 545 -205 0 -205
0 0 90 0 90 510 0 510 0 0 -90z m1220 0 l0 -90 -375 0 -375 0 0 -180 0 -180
318 -2 317 -3 0 -90 0 -90 -317 -3 -318 -2 0 -180 0 -180 375 0 375 0 0 -90 0
-90 -470 0 -470 0 0 635 0 635 470 0 470 0 0 -90z m1283 76 c39 -16 82 -61 96
-99 6 -16 11 -75 11 -133 l0 -104 -90 0 -89 0 -3 83 -3 82 -342 3 -343 2 0
-455 0 -455 343 2 342 3 3 83 3 82 89 0 90 0 0 -104 c0 -115 -8 -147 -48 -190
-52 -55 -58 -56 -476 -56 -248 0 -395 4 -413 11 -34 13 -80 55 -99 91 -11 22
-14 117 -14 533 0 416 3 511 14 533 18 35 64 78 96 91 15 6 181 10 413 10 308
1 394 -2 420 -13z m657 -256 l0 -270 360 0 360 0 0 270 0 270 95 0 95 0 0
-635 0 -635 -95 0 -95 0 0 270 0 270 -360 0 -360 0 0 -270 0 -270 -95 0 -95 0
0 635 0 635 95 0 95 0 0 -270z m1869 -220 l376 -484 3 487 2 487 90 0 90 0 0
-635 0 -635 -92 0 -93 1 -375 484 -375 485 -3 -485 -2 -485 -95 0 -95 0 0 635
0 636 97 -3 97 -3 375 -485z m1938 479 c38 -14 83 -57 99 -96 20 -47 20 -1008
0 -1056 -17 -43 -78 -95 -118 -102 -18 -3 -216 -5 -440 -3 l-406 3 -38 30
c-77 63 -74 39 -74 597 0 327 4 506 11 525 14 37 57 82 94 99 39 17 827 20
872 3z m695 -531 l3 -543 328 -3 327 -2 0 -90 0 -90 -420 0 -420 0 0 635 0
635 90 0 90 0 2 -542z m1935 521 c30 -15 52 -35 71 -67 l27 -47 3 -478 c2
-319 -1 -490 -8 -517 -13 -49 -63 -108 -107 -126 -25 -11 -120 -14 -438 -14
-387 0 -408 1 -445 20 -22 11 -52 39 -67 62 l-28 42 0 511 0 511 27 42 c55 82
48 81 512 82 396 0 411 -1 453 -21z m1459 -4 c23 -14 53 -42 66 -62 20 -34 23
-50 23 -148 l0 -110 -90 0 -90 0 -3 83 -3 82 -339 0 -340 0 0 -455 0 -455 340
0 340 0 0 155 0 155 -170 0 -170 0 0 90 0 90 265 0 265 0 0 -254 c0 -165 -4
-265 -12 -287 -17 -52 -46 -88 -88 -109 -37 -19 -60 -20 -430 -20 -364 0 -393
1 -428 19 -46 23 -67 46 -87 94 -13 31 -15 107 -15 524 0 452 2 491 19 528 20
43 40 64 86 88 26 14 84 16 424 17 l394 0 43 -25z m756 -265 c98 -157 181
-286 185 -287 5 -2 89 128 188 287 l180 290 109 0 108 0 -14 -22 c-28 -43
-385 -603 -431 -677 l-47 -75 0 -248 0 -248 -90 0 -90 0 0 248 0 247 -236 370
c-130 204 -240 378 -245 388 -9 17 -3 18 98 15 l108 -3 177 -285z m-52534 80
c62 -38 70 -114 18 -166 -52 -52 -128 -44 -166 18 -24 39 -25 69 -5 108 30 57
96 75 153 40z m3532 -15 c26 -14 50 -42 50 -60 0 -14 -139 -145 -153 -145 -19
0 -67 56 -67 78 0 14 122 142 136 142 3 0 18 -7 34 -15z m8524 -185 c7 -7 -12
-33 -64 -85 -41 -41 -79 -74 -85 -72 -5 2 -14 17 -18 33 -20 69 52 150 122
140 19 -3 39 -10 45 -16z m-5869 -40 c10 -11 22 -17 27 -14 4 3 7 0 6 -8 -2
-7 3 -12 10 -10 25 5 -2 -25 -159 -177 -86 -83 -160 -147 -164 -143 -5 4 -5 2
-1 -5 6 -11 -10 -28 -26 -28 -5 0 -7 -3 -5 -7 4 -11 -65 -78 -75 -72 -5 3 -7
1 -6 -4 4 -13 -187 -208 -1390 -1417 -569 -572 -1038 -1043 -1041 -1046 -112
-122 -1594 -1579 -1603 -1577 -7 2 -12 -2 -11 -8 1 -6 -17 -29 -40 -52 -32
-31 -46 -39 -57 -32 -11 7 -11 10 -2 10 7 0 10 5 7 10 -4 6 -3 10 2 9 21 -4
33 2 33 15 0 20 -17 29 -26 15 -5 -8 -3 -9 7 -4 8 5 12 6 9 2 -3 -3 -8 -5 -11
-4 -3 1 -13 -4 -22 -12 -11 -9 -17 -10 -17 -2 0 6 5 11 11 11 6 0 9 6 6 13 -2
6 -13 11 -23 9 -12 -2 2 18 40 57 33 33 63 58 68 55 5 -3 7 -1 6 5 -2 5 330
346 737 757 407 411 739 752 737 758 -2 6 0 8 4 3 4 -4 173 158 376 360 309
309 365 369 350 377 -47 27 -69 81 -52 132 16 48 53 74 108 74 38 0 49 -5 79
-36 l34 -36 856 853 c471 470 866 865 879 877 14 15 28 21 36 16 10 -6 11 -5
1 7 -10 13 -10 19 2 35 19 25 19 35 0 28 -8 -4 -12 -10 -9 -15 3 -5 0 -9 -6
-9 -6 0 -8 -4 -5 -10 3 -5 1 -10 -4 -10 -6 0 -11 5 -11 11 0 5 -4 7 -10 4 -5
-3 -10 -1 -10 5 0 6 -5 8 -12 4 -6 -4 -8 -3 -5 3 4 6 0 13 -8 17 -8 3 -15 10
-15 16 0 6 7 4 16 -4 8 -9 20 -13 26 -10 7 4 8 2 4 -4 -9 -15 -3 -15 28 -1 14
7 23 16 20 20 -3 5 -1 9 5 9 5 0 13 -5 16 -11 5 -7 14 -3 26 10 11 12 24 21
29 21 12 0 9 43 -5 53 -6 5 -4 7 5 4 8 -2 14 -11 14 -20 -1 -10 3 -14 10 -10
25 16 33 10 30 -22 -2 -26 1 -32 14 -30 10 1 24 -2 32 -8 12 -9 13 -8 3 2 -6
7 -9 21 -6 30 3 12 1 11 -11 -3 -12 -15 -16 -16 -16 -5 0 8 9 20 20 27 20 12
19 32 -1 32 -6 0 -7 -4 -4 -10 3 -5 1 -10 -4 -10 -13 0 -13 3 -5 24 3 9 10 13
15 10 5 -3 9 0 9 5 0 6 5 11 11 11 8 0 8 -4 0 -14 -8 -10 -9 -16 -1 -21 6 -3
8 -11 5 -16 -4 -5 -2 -9 4 -9 5 0 13 5 16 10 3 6 11 10 18 10 6 0 0 -8 -13
-17 -27 -19 -41 -35 -35 -42 3 -2 21 8 40 23 29 22 34 31 24 42 -6 7 -16 11
-23 7 -6 -3 -8 -2 -3 2 4 5 -1 17 -10 27 -16 18 -15 21 22 58 22 22 42 40 45
40 4 0 15 -9 25 -20z m2609 -168 c2 -4 29 -7 60 -7 50 1 54 0 45 -17 -5 -10
-7 -18 -3 -18 3 0 0 -7 -7 -17 -13 -15 -12 -15 9 -4 12 7 20 16 17 20 -2 5 2
14 9 20 29 24 24 -7 -5 -35 -17 -16 -37 -45 -45 -64 -15 -34 -69 -89 -90 -90
-6 0 -17 -7 -24 -15 -15 -18 -35 -20 -24 -3 4 7 3 8 -5 4 -6 -4 -9 -12 -5 -17
7 -12 -27 -40 -38 -33 -4 3 -5 -1 -3 -8 3 -8 -5 -23 -17 -35 -31 -28 -2690
-2695 -2806 -2814 l-93 -95 388 -386 c570 -567 665 -659 671 -653 3 3 -4 12
-16 21 -12 8 -26 24 -32 34 -8 15 -7 19 9 17 10 0 18 -8 17 -17 -1 -8 6 -15
14 -15 9 0 15 12 17 31 2 24 -3 36 -20 46 -29 19 -67 28 -67 16 0 -5 -5 -6
-10 -3 -6 4 -8 11 -5 16 4 5 1 9 -4 9 -6 0 -11 18 -11 40 0 22 -4 40 -10 40
-5 0 -10 20 -10 43 0 31 6 49 20 62 11 10 20 27 20 37 0 17 2 18 15 5 7 -8 30
-18 50 -21 26 -5 35 -12 35 -26 0 -17 7 -20 41 -20 32 0 42 4 46 20 3 11 12
20 20 20 8 0 19 14 24 30 6 17 15 30 20 30 5 0 9 7 9 15 0 8 9 15 20 15 11 0
20 -4 20 -10 0 -5 9 -10 20 -10 11 0 20 -7 20 -15 0 -11 11 -15 38 -15 31 0
41 5 52 25 7 14 19 25 26 25 7 0 18 9 24 20 12 22 32 28 24 7 -4 -11 23 -17
113 -27 65 -7 124 -18 132 -24 12 -9 13 -8 7 3 -7 10 -3 12 14 6 16 -5 20 -4
15 5 -4 6 -16 10 -26 7 -12 -3 -19 0 -19 9 0 18 10 18 38 -2 12 -8 27 -12 34
-8 6 4 8 3 5 -3 -3 -5 14 -15 39 -21 24 -7 44 -17 44 -23 0 -5 4 -8 9 -4 5 3
12 1 16 -5 4 -6 11 -8 16 -5 5 4 13 -4 18 -17 7 -16 10 -18 10 -6 1 15 4 16
34 3 l33 -14 435 434 c330 331 435 441 437 462 6 47 39 82 90 95 44 11 120 85
1272 1233 674 673 1243 1239 1264 1258 22 20 44 33 50 30 5 -3 6 -1 2 5 -4 6
3 21 14 32 11 11 26 18 32 14 6 -4 8 -3 5 3 -8 13 17 36 28 25 5 -4 5 -1 1 5
-8 14 73 95 87 86 12 -7 39 18 33 33 -2 6 7 22 22 35 l27 24 -24 -27 c-15 -17
-19 -28 -12 -28 7 0 11 -6 8 -14 -3 -7 -1 -18 5 -24 8 -8 8 -15 -1 -26 -7 -9
-8 -16 -2 -20 11 -7 20 5 26 36 7 33 23 44 19 13 -2 -27 -33 -69 -42 -60 -3 3
-12 -4 -20 -16 -8 -12 -20 -18 -29 -14 -12 4 -13 2 -5 -7 7 -10 -313 -337
-1309 -1338 -1282 -1289 -1318 -1326 -1319 -1363 0 -76 -42 -117 -118 -117
-36 0 -54 -17 -445 -408 -224 -224 -407 -411 -407 -415 0 -4 6 -7 14 -7 8 0
17 -4 21 -9 3 -6 -4 -8 -15 -6 -11 2 -18 0 -15 -5 3 -5 15 -7 27 -5 23 5 128
-30 138 -44 3 -4 22 -6 43 -3 37 4 38 5 20 25 -17 20 -17 20 2 12 11 -4 27 -7
35 -6 8 1 43 4 78 6 35 1 66 6 70 11 4 4 2 4 -4 1 -6 -3 -24 7 -40 24 l-29 30
28 -10 c21 -8 34 -8 50 1 12 7 25 11 29 10 4 -1 5 6 2 16 -5 14 -3 14 10 -2 9
-11 16 -23 16 -28 0 -4 6 -8 13 -8 10 0 83 -69 367 -345 38 -37 138 -85 176
-85 25 0 33 15 12 23 -10 3 -10 8 -2 16 8 9 17 9 37 0 28 -13 35 -37 17 -55
-8 -8 60 -36 217 -93 125 -46 261 -96 302 -112 85 -33 82 -33 78 -16 -3 17 14
13 142 -34 l113 -42 264 264 263 264 -194 199 c-107 109 -195 204 -195 211 0
7 8 12 18 11 9 -2 17 -10 17 -19 0 -9 5 -17 10 -17 6 0 10 9 10 19 0 11 4 23
8 27 4 5 5 1 1 -9 -3 -9 -2 -17 4 -17 16 0 22 26 9 41 -11 13 44 -32 68 -56 6
-5 81 -79 167 -164 l156 -153 1584 1578 c1425 1422 2016 2009 2036 2024 4 3
-3 -6 -14 -20 -12 -14 -19 -31 -17 -38 3 -7 1 -12 -4 -11 -17 3 -24 -1 -18
-11 5 -8 11 -7 21 1 9 7 14 8 14 1 0 -18 -20 -24 -35 -12 -12 10 -18 10 -30 0
-8 -7 -15 -17 -15 -22 0 -7 5 -6 13 0 17 15 73 8 69 -9 -3 -10 0 -10 12 1 17
14 22 25 7 15 -5 -3 -12 -1 -16 5 -3 5 3 10 14 10 12 0 21 6 21 13 0 7 14 18
32 25 37 14 53 7 17 -7 -13 -5 -20 -10 -15 -10 5 -1 3 -8 -4 -16 -7 -8 -16
-12 -21 -9 -5 3 -9 -1 -9 -9 0 -19 -34 -49 -45 -40 -4 5 -5 3 -2 -3 7 -13 -16
-37 -26 -29 -4 3 -5 2 -2 -2 8 -10 -66 -83 -77 -77 -5 3 -7 1 -6 -4 3 -9 -599
-619 -1885 -1909 -569 -571 -619 -623 -606 -640 13 -17 13 -17 -4 -4 -16 13
-22 10 -59 -26 l-41 -41 36 -15 c76 -32 95 -127 36 -186 -26 -26 -38 -31 -79
-31 -41 0 -53 5 -79 31 -17 17 -31 39 -31 50 0 10 -3 19 -8 19 -4 0 -159 -152
-345 -338 l-338 -338 243 -239 c134 -131 345 -340 470 -464 125 -123 230 -223
232 -220 2 2 5 20 7 39 4 42 48 87 94 96 37 7 102 -17 111 -40 3 -9 10 -14 14
-11 4 3 8 -29 8 -70 0 -41 -3 -73 -8 -70 -10 6 -7 -21 4 -32 4 -4 6 -1 4 7 -2
12 11 16 65 18 51 2 67 6 67 17 0 9 -11 15 -27 16 -25 1 -24 2 7 8 19 4 95 3
168 -2 131 -8 133 -8 152 15 10 13 14 25 10 28 -5 3 -5 12 0 19 9 15 70 18
124 8 37 -8 40 -11 19 -28 -15 -13 -16 -12 -9 6 6 16 5 18 -5 8 -7 -7 -30 -13
-51 -13 -21 0 -38 -4 -38 -10 0 -17 107 -12 114 5 3 8 17 20 31 25 15 6 24 14
21 19 -3 5 1 11 9 15 8 3 15 10 15 16 0 6 -4 8 -10 5 -6 -3 -7 1 -4 9 3 9 10
16 16 16 5 0 6 -4 3 -10 -3 -5 -1 -10 5 -10 7 0 63 50 125 111 62 61 141 137
175 170 34 32 60 63 58 68 -1 5 -249 257 -550 561 -523 528 -546 553 -530 571
30 34 81 15 61 -23 -8 -14 -6 -18 7 -18 10 0 14 5 10 15 -3 8 0 15 6 15 7 0 2
9 -11 21 -12 12 -20 24 -16 27 10 10 62 -52 57 -67 -3 -8 0 -11 6 -7 13 8 240
-210 789 -757 l263 -262 1497 1496 c1710 1707 1981 1975 1995 1971 5 -1 7 1 4
6 -3 5 48 61 114 125 65 64 122 112 125 107 4 -6 1 -9 -6 -8 -7 2 -13 -3 -14
-10 0 -7 -12 -20 -28 -30 -29 -20 -27 -32 6 -32 13 0 17 5 13 16 -3 9 -2 12 5
9 5 -4 7 -15 4 -25 -3 -10 -1 -21 5 -25 5 -3 10 -2 10 3 0 5 9 12 21 15 18 5
17 3 -6 -21 -27 -27 -55 -37 -55 -21 0 5 5 9 11 9 8 0 7 5 -1 15 -20 24 -33
-4 -15 -31 13 -20 11 -24 -18 -51 -18 -17 -158 -158 -311 -314 -153 -156 -945
-952 -1760 -1769 -815 -817 -1488 -1493 -1495 -1503 -12 -15 1 -31 128 -157
80 -78 147 -137 153 -134 6 4 8 3 5 -2 -8 -14 7 -35 29 -38 12 -2 18 -10 16
-20 -2 -12 3 -16 15 -14 10 2 18 -3 19 -9 1 -7 2 -17 3 -23 1 -13 53 10 69 32
7 10 22 18 32 18 10 0 22 5 25 10 4 6 62 10 141 10 112 0 134 -2 134 -15 0
-11 11 -15 40 -15 42 0 40 2 45 -62 1 -26 15 -34 15 -10 0 12 5 22 10 22 6 0
10 6 10 14 0 7 7 27 15 42 8 16 15 22 15 14 0 -9 -5 -21 -11 -27 -6 -6 -9 -17
-6 -25 3 -8 9 -3 15 14 6 14 16 29 22 33 5 3 8 11 4 16 -3 5 -2 8 3 7 4 -1 19
2 33 6 23 8 23 10 6 16 -19 6 -19 7 2 12 12 4 20 2 19 -5 -1 -6 12 -12 28 -13
17 -1 43 -9 59 -17 16 -9 33 -14 38 -11 4 3 5 -2 2 -10 -3 -8 1 -24 9 -36 12
-18 15 -18 20 -5 4 8 2 15 -4 15 -6 0 -7 5 -4 10 4 6 12 4 22 -5 12 -12 13
-19 3 -30 -11 -13 -6 -15 29 -15 22 0 41 -4 41 -10 0 -6 33 -10 80 -10 47 0
80 4 80 10 0 6 10 10 23 10 13 0 27 4 33 9 15 13 184 -10 184 -26 0 -9 -13
-13 -40 -13 -22 0 -40 -4 -40 -10 0 -6 -33 -10 -80 -10 -64 0 -80 -3 -80 -15
0 -12 16 -15 80 -15 44 0 80 -4 80 -9 0 -10 96 -21 133 -14 15 3 27 11 27 17
0 8 45 12 163 12 89 0 125 -2 80 -4 -65 -2 -83 -6 -83 -17 0 -11 12 -15 39
-15 22 0 41 -4 43 -9 2 -6 41 -11 88 -12 82 -2 86 -1 114 27 17 16 26 22 21
14 -8 -13 -7 -13 8 -1 9 7 17 20 17 29 0 8 3 12 7 9 9 -9 44 23 37 35 -3 4 -1
7 4 6 6 -2 646 632 1424 1407 2084 2079 2264 2256 2280 2250 10 -4 25 8 42 32
l27 38 -30 -34 c-17 -19 -33 -33 -36 -30 -9 10 114 123 137 126 13 2 18 0 13
-4 -6 -5 -17 -21 -25 -37 -8 -15 -24 -32 -35 -37 -18 -7 -18 -8 -2 -8 10 -1
27 3 37 9 14 7 20 6 24 -6 5 -12 2 -15 -9 -10 -9 3 -13 2 -10 -4 3 -5 -6 -22
-22 -37 -15 -16 -27 -31 -25 -35 1 -5 -5 -8 -13 -8 -8 0 -15 -4 -15 -8 0 -5
-40 -51 -90 -103 -49 -52 -90 -95 -90 -96 0 -1 15 1 34 4 81 13 145 -72 113
-150 -47 -111 -215 -70 -205 51 l3 43 -1355 -1358 c-1585 -1589 -2050 -2059
-2074 -2093 -9 -14 -14 -19 -11 -12 9 17 0 15 -15 -4 -8 -8 -9 -14 -4 -13 5 1
16 1 24 0 13 -1 13 -3 0 -14 -8 -7 -20 -21 -26 -32 -6 -11 -20 -22 -30 -24
-16 -3 -17 -1 -5 13 9 10 10 16 2 16 -6 0 -11 -5 -11 -11 0 -5 -4 -7 -10 -4
-6 3 -7 -1 -4 -10 5 -11 16 -15 36 -13 17 2 33 -3 39 -12 7 -11 8 -6 4 19 -6
26 -4 32 6 26 8 -6 11 -4 7 6 -3 8 0 20 8 26 10 10 14 10 17 0 3 -8 11 -4 22
11 9 12 22 22 28 22 7 0 4 -5 -5 -11 -22 -12 -24 -33 -3 -25 12 4 15 -3 15
-29 l0 -35 88 2 c48 1 103 -3 122 -9 32 -10 28 -11 -50 -13 l-85 -3 120 -15
c66 -8 122 -19 123 -24 2 -4 39 -8 83 -8 46 0 79 -4 79 -10 0 -15 57 -12 63 3
4 9 7 9 15 -1 5 -8 25 -12 50 -11 23 2 45 0 48 -4 4 -4 2 -7 -4 -7 -7 0 -12
-4 -12 -10 0 -5 25 -10 55 -10 53 0 74 -13 38 -23 -10 -3 19 -5 65 -6 45 0 82
-5 82 -10 0 -5 36 -12 80 -16 76 -7 80 -8 80 -31 0 -21 4 -24 40 -24 22 0 40
-4 40 -9 0 -5 18 -11 40 -15 26 -4 40 -11 40 -21 0 -11 11 -15 40 -15 29 0 40
4 40 15 0 11 11 15 40 15 36 0 40 -2 40 -25 0 -22 4 -25 40 -25 22 0 40 -4 40
-9 0 -5 18 -11 40 -15 36 -6 40 -9 40 -36 0 -28 2 -30 40 -30 22 0 40 -4 40
-10 0 -5 18 -10 40 -10 29 0 40 -4 40 -15 0 -11 11 -15 40 -15 22 0 40 -4 40
-10 0 -5 10 -10 23 -9 l22 0 -23 10 c-13 5 -21 13 -18 17 6 10 -47 52 -64 52
-5 0 -10 -5 -10 -11 0 -5 4 -8 8 -5 4 2 14 0 22 -5 11 -7 8 -8 -10 -6 -20 3
-26 10 -28 38 -3 33 -3 33 13 14 16 -19 16 -19 4 4 -6 13 -9 38 -6 56 3 18 0
38 -6 45 -9 10 -9 11 0 6 6 -3 23 6 36 20 35 38 113 45 155 15 43 -30 58 -73
44 -126 -6 -24 -9 -52 -7 -64 3 -17 0 -21 -14 -16 -12 4 -21 -2 -29 -21 -11
-23 -11 -25 8 -19 16 5 19 3 13 -12 -6 -16 -5 -16 10 -4 12 9 17 10 17 2 0 -8
15 -11 45 -9 l45 3 1448 1445 c2538 2534 2607 2601 2626 2594 16 -6 49 17 54
39 3 10 10 9 30 -3 16 -11 16 -11 -1 -6 -11 4 -16 2 -12 -5 4 -5 20 -8 36 -5
17 2 29 1 27 -4 -2 -4 -914 -922 -2028 -2040 -1135 -1139 -2026 -2041 -2028
-2052 -2 -12 -7 -17 -10 -12 -4 5 -20 -3 -35 -18 l-28 -27 33 3 c18 2 32 8 31
14 -1 6 16 10 42 10 25 -1 45 -5 45 -10 0 -4 19 -9 43 -10 l42 -1 -42 -4 c-24
-2 -43 -8 -43 -12 0 -11 63 -23 82 -16 10 4 26 -6 42 -26 20 -24 30 -29 36
-20 5 9 10 10 14 2 4 -6 2 -11 -3 -11 -6 0 -11 -4 -11 -10 0 -5 18 -13 40 -16
22 -4 40 -10 40 -15 0 -5 18 -9 40 -9 22 0 40 -4 40 -10 0 -5 19 -11 43 -12
l42 -1 -42 -4 c-55 -5 -61 -33 -7 -33 26 0 41 -7 55 -24 10 -13 33 -26 51 -29
18 -2 59 -11 91 -18 55 -13 60 -12 73 6 10 13 14 15 14 4 0 -8 15 -20 33 -27
17 -8 41 -17 52 -22 11 -5 32 -11 48 -14 15 -4 27 -13 27 -21 0 -11 16 -14 77
-13 52 1 78 -2 81 -10 2 -7 21 -12 43 -12 21 0 39 -4 39 -10 0 -5 18 -10 40
-10 l40 0 0 -45 0 -45 40 0 c29 0 40 -4 40 -15 0 -11 11 -15 40 -15 36 0 40
-2 40 -25 0 -22 4 -25 40 -25 29 0 40 -4 40 -15 0 -9 9 -15 24 -15 35 0 56 10
56 26 0 15 54 20 84 8 17 -7 22 -34 6 -34 -5 0 -10 7 -10 15 0 9 -9 15 -25 15
-32 0 -32 -13 0 -38 14 -11 25 -25 25 -31 0 -19 27 -12 33 9 7 27 53 27 69 0
7 -11 23 -20 35 -20 18 0 23 -6 23 -25 0 -15 6 -25 14 -25 8 0 16 -7 20 -15 3
-8 14 -15 24 -15 11 0 25 -7 32 -15 13 -15 8 -19 -22 -16 -9 1 -22 -8 -29 -21
-12 -23 -12 -23 9 -5 11 11 25 16 30 13 5 -3 22 9 38 26 16 17 23 28 15 23 -9
-5 -12 -3 -9 6 3 8 14 15 26 15 22 1 147 125 3085 3054 687 685 1253 1244
1259 1242 5 -1 7 1 4 6 -3 5 18 32 47 60 44 43 58 51 85 49 17 -1 32 -6 32
-11 0 -5 9 -1 20 9 11 10 22 16 25 13 3 -3 -1 -11 -10 -18 -8 -7 -15 -17 -15
-23 0 -6 11 0 25 13 13 12 22 26 20 31 -3 4 -1 10 5 14 6 4 7 12 3 18 -5 9 -2
8 8 0 13 -10 19 -9 36 10 16 19 17 25 6 35 -7 7 -13 20 -12 30 0 12 3 10 10
-7 9 -23 10 -23 29 -6 11 10 20 15 20 10 0 -4 8 -1 18 6 9 7 -23 -30 -73 -82
-49 -53 -97 -96 -105 -95 -8 1 -14 -5 -12 -13 2 -7 -401 -418 -895 -913 -494
-495 -899 -901 -901 -902 -1 -2 4 -16 13 -32 19 -37 19 -67 0 -104 -27 -53
-101 -75 -154 -46 -23 13 -56 -19 -1135 -1102 -611 -613 -1110 -1120 -1108
-1126 2 -6 0 -8 -4 -3 -10 9 -65 -43 -58 -55 3 -5 0 -7 -8 -6 -7 2 -12 -4 -10
-12 2 -8 0 -12 -4 -7 -10 9 -65 -43 -58 -55 3 -5 0 -7 -8 -6 -7 2 -12 -3 -10
-10 1 -6 -1 -11 -5 -10 -8 2 -74 -59 -105 -97 -16 -20 -16 -21 2 -22 19 -2 24
7 21 33 -1 6 6 18 15 25 15 12 18 12 22 0 3 -8 15 -24 28 -36 13 -12 24 -27
24 -34 0 -6 7 -11 15 -11 8 0 25 -6 36 -12 17 -10 23 -10 26 0 6 17 83 16 83
-1 0 -13 32 -26 100 -42 50 -12 80 -28 80 -41 0 -8 9 -14 20 -14 11 0 20 7 20
15 0 9 9 15 25 15 14 0 25 -4 25 -9 0 -5 8 -12 18 -16 34 -10 112 -90 112
-113 0 -19 5 -22 40 -22 29 0 40 4 40 15 0 10 10 15 30 15 20 0 30 -5 30 -15
0 -21 18 -19 22 3 3 13 10 8 27 -20 12 -20 28 -39 36 -42 8 -3 15 -12 15 -21
0 -8 5 -15 10 -15 6 0 10 19 10 43 l0 42 26 -42 c15 -26 33 -43 44 -43 10 0
20 -6 23 -12 3 -10 9 -10 26 0 19 11 21 10 21 -8 0 -17 7 -20 40 -20 23 0 40
-5 40 -11 0 -8 17 -10 53 -6 53 5 107 -14 107 -39 0 -6 18 -17 40 -24 22 -7
40 -16 40 -20 0 -4 34 -11 75 -15 41 -4 77 -11 81 -16 3 -5 23 -9 44 -9 21 0
40 -3 42 -7 6 -14 78 -43 78 -32 0 7 10 5 25 -5 13 -9 38 -16 55 -16 17 0 42
-7 55 -16 16 -11 25 -12 25 -5 0 8 5 9 19 1 11 -5 34 -10 51 -10 25 0 31 -4
26 -15 -4 -13 -2 -13 14 -5 10 5 22 20 25 31 6 17 9 19 16 8 5 -9 4 -18 -4
-24 -8 -5 -16 -20 -19 -33 -6 -23 -6 -23 18 3 13 15 23 33 22 40 -2 8 1 13 7
12 5 -1 9 -6 7 -12 -2 -5 14 8 36 30 22 22 38 43 35 47 -2 5 0 7 5 6 11 -3
642 622 2972 2946 1583 1579 1790 1784 1776 1759 -4 -7 -2 -13 4 -13 6 0 9 -4
5 -9 -3 -5 0 -13 6 -17 7 -4 9 -3 6 3 -4 6 0 14 9 17 25 9 41 7 24 -4 -13 -8
-13 -10 1 -10 9 0 22 6 28 13 8 11 3 13 -29 13 -25 -1 -40 4 -40 11 0 7 6 10
14 7 8 -3 17 0 21 6 5 8 10 8 20 0 20 -16 57 -21 52 -7 -2 7 -9 12 -15 12 -5
0 -14 3 -18 8 -4 4 0 7 9 7 10 0 17 8 17 18 0 11 5 7 15 -12 l16 -30 -675
-675 c-372 -372 -705 -707 -742 -746 -36 -38 -822 -827 -1746 -1752 -1129
-1129 -1678 -1685 -1673 -1694 5 -8 4 -10 -3 -5 -7 4 -12 2 -12 -4 0 -6 -4 -8
-10 -5 -5 3 -10 -1 -10 -10 0 -10 -5 -14 -12 -9 -10 5 -10 4 -1 -6 10 -11 15
-11 28 0 8 7 18 10 22 6 3 -3 2 -6 -4 -6 -6 0 -13 -6 -16 -14 -4 -9 11 -5 41
11 34 18 56 23 82 19 19 -2 59 -8 88 -12 34 -4 52 -11 52 -20 0 -9 12 -14 36
-14 27 0 37 -5 41 -20 7 -25 23 -26 23 -1 0 17 8 19 77 19 42 1 86 -4 97 -11
12 -6 54 -10 93 -8 70 2 73 1 83 -23 6 -16 20 -28 37 -32 15 -4 33 -11 40 -16
6 -5 56 -8 111 -7 55 1 105 -2 112 -6 6 -4 55 -9 107 -10 58 -2 99 -8 103 -15
4 -7 25 -10 49 -9 22 2 46 -2 53 -9 7 -7 22 -12 34 -12 12 0 24 -4 26 -9 2 -6
89 -13 193 -16 175 -6 245 -17 245 -38 0 -5 9 -5 20 -2 14 4 20 2 20 -8 0 -12
24 -16 133 -19 90 -2 139 -7 150 -16 11 -10 45 -11 144 -6 116 6 130 5 136
-10 6 -14 17 -16 85 -10 62 5 81 3 93 -8 15 -15 133 -22 589 -34 96 -2 191 -9
210 -16 21 -7 132 -12 290 -13 140 -1 345 -7 455 -14 110 -6 265 -14 345 -17
80 -3 174 -8 210 -10 36 -3 133 -7 215 -10 83 -2 193 -6 245 -9 309 -16 626
-25 600 -16 -23 8 -23 9 -4 10 12 1 27 -6 34 -14 9 -11 48 -15 198 -16 103 -1
232 -3 287 -5 55 -1 262 -5 460 -8 198 -3 554 -10 790 -16 237 -5 601 -12 810
-14 209 -3 607 -7 885 -10 877 -11 1448 -14 2390 -15 1745 -2 2096 -1 2355 9
246 9 641 14 894 11 62 0 117 2 122 5 5 3 226 7 491 9 266 2 588 7 716 10 172
5 232 4 232 -4 0 -9 44 -11 163 -7 285 10 397 17 397 27 0 5 25 9 55 9 30 0
55 -4 55 -9 0 -16 74 -20 240 -12 91 4 215 5 275 2 61 -4 135 -3 165 1 30 5
149 13 264 18 157 8 218 7 250 -2 22 -6 64 -11 91 -10 28 1 44 -1 38 -4 -15
-7 -17 -34 -3 -34 6 0 10 4 10 8 0 4 72 8 160 7 164 0 226 -14 78 -17 -46 -1
-64 -3 -40 -5 23 -2 42 -8 42 -12 0 -10 123 -34 182 -35 26 -1 50 -5 54 -9 11
-10 84 -9 84 2 0 6 -19 11 -42 13 -24 2 83 4 237 6 154 1 282 7 285 12 8 13
176 16 192 3 7 -6 25 -13 40 -17 15 -3 42 -22 61 -41 l34 -35 117 0 c93 0 116
-3 116 -14 0 -10 22 -16 80 -21 50 -4 80 -11 80 -19 0 -11 32 -28 80 -41 14
-4 55 -23 93 -42 56 -30 67 -40 67 -61 0 -24 2 -24 50 -20 54 5 57 4 36 -18
-11 -10 -43 -14 -130 -14 l-116 0 0 -40 c0 -39 -1 -40 -34 -40 -19 0 -40 -2
-48 -3 -7 -2 -10 -2 -5 0 4 3 7 16 7 29 0 23 -3 24 -66 24 -62 0 -65 -1 -53
-17 26 -35 48 -53 64 -53 8 0 15 -6 15 -14 0 -8 15 -17 35 -20 47 -9 45 -26
-4 -26 -22 0 -44 -6 -51 -15 -8 -9 -30 -15 -56 -15 -40 0 -44 -2 -44 -24 0
-22 5 -25 43 -29 23 -2 5 -4 -40 -5 -48 -1 -83 -6 -83 -12 0 -5 -18 -10 -40
-10 -36 0 -40 -2 -40 -25 0 -20 5 -25 25 -25 36 0 21 -28 -18 -34 -78 -12
-247 -16 -247 -6 0 6 32 10 80 10 67 0 80 3 80 16 0 14 -11 15 -82 10 -117 -9
-158 -16 -158 -27 0 -5 7 -9 15 -9 8 0 15 -4 15 -10 0 -5 -7 -10 -15 -10 -8 0
-15 -4 -15 -10 0 -5 18 -10 40 -10 22 0 40 -4 40 -10 0 -6 -33 -10 -80 -10
-47 0 -80 4 -80 10 0 6 -15 10 -32 10 -28 -1 -30 -2 -15 -11 9 -5 22 -7 27 -4
15 9 0 -48 -14 -57 -6 -5 0 -8 14 -9 40 -3 -107 -16 -205 -19 -75 -2 -165 -15
-130 -19 30 -4 -28 -21 -75 -23 -50 -1 -51 -2 -12 -5 23 -2 42 -8 42 -12 0
-14 -154 -25 -158 -12 -4 13 -62 15 -62 2 0 -12 -55 -31 -94 -32 -17 0 -25 -3
-18 -6 6 -2 12 -13 12 -22 0 -24 -62 -42 -137 -40 -32 0 -77 -2 -100 -5 -24
-3 -60 -8 -81 -10 -21 -2 -55 -11 -74 -19 -23 -10 -91 -18 -182 -22 -105 -6
-146 -11 -146 -20 0 -17 -110 -39 -152 -31 -23 4 -40 1 -53 -9 -19 -14 -18
-14 15 -16 55 -2 -217 -37 -297 -38 l-73 -1 0 -30 c0 -29 -1 -30 -47 -30 -27
-1 -133 -5 -237 -10 -148 -7 -193 -12 -205 -25 -10 -10 -11 -15 -3 -15 7 0 12
-4 12 -9 0 -15 -530 -58 -564 -45 -17 7 -22 -11 -6 -21 25 -15 8 -34 -32 -38
-41 -3 -41 -4 10 -5 49 -2 65 -13 41 -27 -5 -4 -46 -4 -90 0 -59 5 -79 11 -79
22 0 9 -5 11 -12 6 -7 -4 -71 -11 -143 -14 l-130 -5 130 -2 c187 -4 138 -21
-74 -27 -166 -5 -171 -4 -171 15 0 24 -9 25 -36 5 -17 -13 -17 -14 -1 -15 26
0 20 -27 -8 -34 -14 -4 -81 -3 -149 0 l-124 7 -7 -32 -7 -31 -194 0 c-170 0
-194 -2 -194 -16 0 -13 -13 -15 -91 -13 -86 3 -93 2 -113 -21 l-21 -25 -260
-3 c-238 -4 -260 -5 -272 -22 -11 -16 -22 -18 -68 -13 -37 4 -55 2 -55 -5 0
-7 -30 -13 -77 -15 -43 -2 -26 -4 37 -3 63 1 98 0 78 -2 -21 -2 -38 -7 -38
-13 0 -5 -26 -9 -57 -9 -67 0 -103 -8 -103 -22 0 -5 9 -12 21 -15 33 -9 1 -23
-53 -23 -45 0 -48 2 -48 25 0 23 -4 25 -40 25 -22 0 -40 -4 -40 -9 0 -6 -66
-9 -162 -9 -164 2 -238 -10 -238 -38 0 -14 -125 -28 -163 -19 -16 4 -35 1 -51
-10 -23 -16 -49 -17 -223 -13 -139 3 -198 8 -201 16 -5 16 -65 15 -105 -2 -18
-7 -77 -17 -131 -21 -76 -5 -101 -11 -115 -26 -16 -17 -36 -20 -197 -23 -98
-2 -170 -1 -159 2 11 2 24 10 28 18 4 8 15 14 22 14 8 0 15 5 15 10 0 13 -27
13 -35 0 -3 -6 -50 -10 -106 -10 -59 0 -99 -4 -99 -10 0 -5 -19 -10 -42 -10
-33 0 -40 -3 -28 -11 11 -8 -7 -9 -65 -5 -76 6 -81 5 -90 -16 -9 -21 -16 -23
-83 -20 -66 2 -72 0 -72 -18 0 -11 -4 -20 -10 -20 -5 0 -10 9 -10 20 0 11 5
20 10 20 6 0 10 9 10 20 0 11 -4 20 -10 20 -5 0 -10 -4 -10 -8 0 -12 -393 -34
-400 -22 -7 11 -186 5 -221 -8 -13 -5 -221 -8 -462 -8 l-438 1 5 -25 5 -26
-165 1 c-90 0 -164 -2 -164 -6 0 -4 -70 -10 -157 -14 -133 -6 -159 -10 -177
-26 -28 -27 -34 -24 -38 19 l-3 37 -105 2 c-58 1 -99 -1 -92 -3 13 -6 17 -40
5 -47 -5 -3 -35 -8 -69 -12 -49 -5 -64 -3 -77 9 -17 17 -87 22 -87 6 0 -5 -18
-10 -39 -10 -22 0 -41 -5 -43 -12 -9 -25 -108 30 -108 59 0 16 -16 17 -26 2
-4 -8 -32 -10 -80 -7 -46 3 -77 1 -84 -6 -8 -8 -13 -7 -19 2 -10 17 -81 29
-81 13 0 -7 -27 -11 -80 -11 -47 0 -80 4 -80 10 0 6 -78 10 -214 10 -162 0
-216 3 -220 13 -3 8 -10 6 -23 -8 -15 -17 -26 -19 -68 -13 -86 11 -125 9 -125
-6 0 -29 -28 -40 -70 -26 -21 7 -41 19 -45 27 -3 10 -13 13 -30 9 -13 -3 -86
-1 -162 5 -340 26 -330 26 -326 4 4 -17 3 -17 -6 -5 -9 13 -11 13 -11 -1 0 -9
3 -19 7 -23 13 -13 10 -53 -3 -53 -9 0 -11 4 -4 12 5 7 7 15 3 18 -3 4 -12 -1
-19 -11 -7 -9 -14 -12 -14 -6 0 6 -24 10 -59 10 -33 0 -58 -3 -55 -7 2 -4 -1
-11 -7 -15 -7 -4 -9 -3 -5 4 7 12 -43 64 -56 56 -4 -3 -6 1 -3 8 3 7 1 19 -4
27 -7 11 -38 12 -165 6 -86 -4 -156 -11 -156 -16 0 -5 -18 -9 -40 -9 -22 0
-40 -4 -40 -9 0 -15 -462 -13 -472 2 -6 9 -8 9 -8 0 0 -7 -9 -13 -20 -13 -11
0 -20 5 -20 10 0 6 -9 10 -20 10 -11 0 -20 -5 -20 -11 0 -11 -89 -8 -192 6
-39 6 -48 4 -48 -8 0 -15 -37 -30 -52 -21 -4 3 -8 12 -8 20 0 11 -18 14 -90
14 -74 0 -90 -3 -90 -15 0 -14 -35 -15 -317 -9 -175 4 -321 11 -324 16 -7 11
-133 13 -321 3 -117 -6 -158 -5 -158 4 0 20 -75 13 -101 -10 -21 -18 -24 -18
-27 -5 -3 13 -20 16 -98 16 -77 0 -94 3 -94 15 0 12 -19 15 -112 16 -62 0
-138 4 -168 8 -41 6 -58 5 -68 -6 -7 -7 -22 -13 -32 -13 -10 0 -20 -4 -22 -9
-4 -11 -26 -14 -85 -12 -35 1 -40 4 -36 20 8 30 -32 33 -72 5 -33 -22 -45 -24
-160 -24 -79 0 -125 4 -125 10 0 7 -66 9 -192 8 -190 -3 -193 -3 -204 -26 -9
-18 -13 -20 -17 -8 -3 8 -1 17 6 20 7 2 -10 5 -37 5 -38 1 -47 4 -42 16 3 8
-2 21 -10 30 -18 18 -24 18 -44 4 -12 -8 -10 -9 8 -4 12 3 22 2 22 -3 0 -13
-29 -24 -43 -16 -7 3 3 -7 21 -23 57 -49 71 -79 60 -126 -11 -53 -44 -86 -90
-94 -50 -7 -80 1 -111 33 -36 35 -38 110 -5 154 12 16 20 32 17 34 -15 14
-284 38 -365 32 -59 -5 -93 -3 -95 3 -5 14 -313 35 -317 22 -3 -9 -105 -7
-235 6 -50 5 -57 4 -51 -11 5 -14 3 -15 -21 -6 -37 14 -95 13 -95 -2 0 -9 -3
-9 -12 0 -10 10 -10 15 2 22 8 5 11 12 7 17 -4 4 -17 2 -28 -5 -13 -9 -77 -15
-180 -18 -138 -4 -159 -2 -159 11 0 9 -9 15 -23 15 -13 0 -93 5 -178 11 -132
9 -165 8 -223 -5 -83 -20 -86 -20 -86 -1 0 12 -15 15 -79 15 -71 0 -82 -2 -95
-22 -13 -18 -16 -19 -16 -5 0 9 6 17 13 17 6 0 4 5 -5 11 -23 13 -23 27 -2 25
9 0 18 7 19 16 3 16 1 16 -21 2 -18 -12 -22 -22 -18 -40 7 -28 -2 -30 -53 -9
-19 8 -43 15 -52 14 -9 0 -1 -5 18 -10 18 -6 31 -12 29 -14 -2 -3 -19 -1 -36
4 -23 7 -32 6 -32 -2 0 -8 -3 -7 -9 2 -6 10 -10 10 -16 1 -10 -15 -39 25 -30
43 4 6 0 4 -8 -5 -11 -14 -35 -18 -133 -20 -105 -3 -121 -1 -134 15 -14 17
-22 18 -93 8 -43 -6 -90 -10 -105 -9 -17 0 -11 4 18 8 33 5 13 7 -70 8 -63 1
-135 -3 -160 -7 -32 -7 -47 -6 -55 3 -21 26 -93 33 -282 31 -106 -2 -193 1
-193 6 0 4 -93 10 -207 13 -115 2 -217 4 -228 5 -11 1 -76 0 -145 -1 -99 -1
-132 2 -157 15 -23 12 -58 17 -127 17 -53 0 -98 4 -101 10 -4 7 -13 6 -26 -1
-11 -6 -27 -8 -35 -5 -7 3 -20 -5 -29 -17 -8 -12 -15 -18 -15 -13 0 5 -7 3
-15 -4 -8 -7 -13 -16 -10 -20 3 -5 -3 -11 -12 -15 -10 -3 -49 -36 -87 -74 -68
-67 -69 -69 -52 -92 9 -13 16 -41 16 -62 0 -90 -90 -143 -172 -101 l-31 16
-170 -170 -170 -171 44 -40 c24 -23 39 -41 34 -41 -15 1 -45 26 -45 37 0 6 -8
13 -18 15 -11 3 -19 0 -19 -7 0 -7 6 -11 14 -8 21 8 15 -5 -7 -17 -11 -6 -20
-7 -19 -3 3 18 -2 33 -11 33 -5 0 -7 -16 -5 -36 3 -23 1 -33 -5 -29 -6 4 -8
15 -5 26 4 10 3 19 -2 19 -4 0 -480 -472 -1058 -1048 -577 -576 -1301 -1298
-1609 -1603 -307 -304 -570 -566 -583 -581 -14 -15 -30 -25 -36 -21 -6 3 -7 2
-4 -4 6 -10 -38 -56 -65 -66 -10 -3 -18 -11 -18 -17 0 -6 -4 -9 -9 -6 -11 7 9
66 22 66 4 0 6 -4 2 -9 -11 -19 17 -23 30 -5 20 27 18 33 -7 27 -19 -5 -21 -3
-10 8 17 18 15 34 -3 19 -10 -9 -15 -9 -15 -1 0 6 -5 11 -11 11 -6 0 -9 -7 -5
-15 3 -9 0 -15 -8 -15 -7 0 -21 -10 -32 -21 -19 -22 -19 -22 4 -10 27 15 40 8
24 -12 -7 -8 -10 -16 -7 -19 3 -3 -2 -11 -11 -19 -15 -12 -16 -11 -9 10 6 19
4 23 -9 18 -38 -15 -21 18 51 95 78 84 2000 2012 2808 2818 387 385 508 511
467 486 -8 -5 -26 5 -46 26 -19 18 -87 84 -153 147 -65 63 -260 255 -434 428
-173 172 -319 310 -324 306 -4 -5 -5 -3 -2 3 6 11 -7 25 -53 57 -14 10 -25 22
-25 27 0 6 -3 10 -8 10 -4 0 -19 12 -33 27 -14 16 -36 29 -47 30 -61 5 -107
17 -107 28 0 17 -23 25 -74 25 -24 0 -63 6 -87 13 -24 8 -50 12 -56 10 -16 -6
-55 16 -48 27 3 4 -3 7 -12 6 -10 -2 -19 -8 -19 -14 -1 -7 -2 -17 -3 -23 0 -6
-7 -9 -15 -6 -16 7 -50 -26 -39 -37 5 -4 1 -6 -7 -4 -9 2 -14 -3 -12 -12 2 -8
0 -11 -4 -7 -10 10 -645 -624 -637 -636 3 -6 1 -7 -4 -4 -6 4 -635 -615 -1397
-1376 -763 -760 -1436 -1430 -1496 -1489 -103 -100 -137 -121 -148 -90 -2 8 3
10 15 6 17 -5 17 -5 1 9 -10 8 -18 18 -18 22 0 5 10 -1 23 -13 39 -37 53 2 16
41 l-21 22 17 -35 18 -35 -24 22 c-18 16 -27 18 -35 9 -6 -6 -9 -16 -7 -22 2
-5 -6 -10 -17 -10 -25 0 -25 8 0 26 11 8 20 19 20 26 0 6 12 22 28 36 46 43
2556 2562 2750 2760 166 169 182 189 172 208 -8 15 -18 19 -33 16 -12 -3 -16
-3 -9 0 18 8 15 27 -4 20 -11 -4 -15 -2 -11 7 4 10 -3 12 -23 9 -16 -2 -31 2
-35 9 -6 9 -3 11 8 6 22 -8 21 -4 -3 18 -20 18 -21 18 -14 0 5 -12 4 -16 -4
-11 -8 5 -10 2 -6 -9 5 -11 2 -14 -12 -8 -12 4 -15 3 -10 -6 12 -19 -97 85
-356 339 -132 129 -278 272 -326 318 -48 46 -183 178 -299 293 -117 116 -217
208 -222 204 -5 -3 -12 -1 -16 5 -10 16 -28 12 -21 -5 4 -13 2 -14 -15 -5 -11
6 -17 15 -14 21 4 5 11 7 16 4 5 -4 9 -1 9 6 0 7 8 5 20 -6 11 -10 20 -13 20
-8 0 11 -25 26 -47 27 -10 1 -1813 -1788 -3023 -2998 l-255 -255 -60 -2 c-78
-2 -80 -2 -65 16 14 17 34 10 24 -8 -4 -7 -3 -8 2 -4 11 11 12 30 2 37 -7 6
337 353 2327 2348 517 519 931 940 921 936 -15 -6 -17 -4 -11 7 7 12 6 12 -6
1 -8 -7 -14 -18 -14 -25 0 -7 -13 -11 -30 -10 -41 2 -143 20 -125 22 30 3 -19
22 -64 24 -25 2 -51 10 -60 20 -10 9 -21 17 -26 17 -5 0 -7 6 -4 14 3 8 1 17
-5 21 -6 3 -11 -1 -11 -9 0 -21 -9 -20 -70 4 -28 11 -62 20 -76 20 -29 0 -94
40 -94 58 0 7 -12 12 -29 12 -49 0 -91 12 -91 26 0 8 -12 16 -27 20 -42 8
-103 36 -98 43 2 4 -24 6 -58 3 -45 -2 -58 0 -47 7 11 8 5 11 -27 11 -24 0
-43 5 -43 10 0 6 -7 10 -15 10 -9 0 -35 9 -57 20 -23 11 -52 20 -64 20 -12 0
-27 7 -35 16 -8 10 -22 14 -40 10 -29 -6 -66 24 -54 43 4 7 -7 11 -30 11 -31
0 -71 14 -85 31 -3 3 -27 8 -53 11 -26 3 -56 13 -65 22 -10 8 -41 21 -70 27
-29 7 -52 16 -52 20 0 4 -18 10 -40 14 -22 4 -40 11 -40 16 0 5 -9 9 -19 9
-11 0 -23 5 -27 11 -3 6 -15 8 -27 5 -13 -3 -32 5 -56 25 -19 16 -45 29 -57
29 -33 0 -58 11 -45 20 8 4 5 12 -7 23 -18 17 -20 16 -33 0 -13 -16 -12 -17 4
-4 11 9 17 10 17 2 0 -10 -14 -15 -33 -12 -4 1 -45 -35 -90 -79 l-82 -79 231
-233 c325 -327 450 -459 446 -472 -2 -6 0 -8 4 -3 10 10 45 -23 37 -36 -3 -5
-1 -7 4 -4 14 9 37 -19 28 -33 -3 -6 -11 -8 -16 -4 -6 3 -17 -3 -25 -15 -8
-12 -21 -21 -27 -21 -7 0 -4 5 6 11 9 6 15 14 12 20 -4 5 -2 9 4 9 6 0 8 7 4
16 -5 15 -8 15 -17 2 -6 -8 -17 -13 -24 -11 -8 3 -10 -1 -5 -14 5 -14 0 -12
-23 8 -47 42 -312 298 -522 504 -106 105 -196 188 -200 186 -21 -10 -411 -397
-1402 -1387 -608 -607 -1109 -1104 -1114 -1104 -4 0 -17 -12 -28 -26 -12 -14
-27 -23 -35 -20 -8 3 -11 2 -8 -4 3 -5 -15 -31 -41 -57 -25 -26 -43 -42 -39
-34 5 9 3 12 -6 9 -8 -3 -15 -10 -15 -16 -1 -7 -2 -16 -3 -21 0 -5 -13 -16
-27 -26 l-25 -16 16 25 c10 14 21 26 25 26 5 0 6 9 3 20 -3 11 -14 20 -24 20
-24 0 -24 -9 -1 -27 9 -8 11 -11 3 -7 -9 4 -12 3 -7 -4 3 -6 2 -13 -3 -16 -9
-6 -27 31 -23 47 1 5 -2 6 -8 2 -6 -3 -8 -11 -5 -16 4 -5 1 -9 -6 -9 -6 0 -18
-8 -25 -17 -7 -10 -15 -15 -19 -12 -7 8 415 436 1782 1808 l952 956 -137 135
c-385 380 -502 493 -496 477 3 -9 11 -17 16 -17 6 0 7 -7 4 -16 -3 -8 -2 -12
4 -9 6 4 17 -1 26 -10 15 -14 14 -15 -11 -11 -33 6 -67 35 -61 52 3 7 -2 10
-15 7 -11 -3 -21 1 -24 9 -4 10 -16 13 -38 11 -25 -4 -29 -2 -17 6 13 9 13 11
-2 11 -26 0 -142 41 -146 51 -2 5 -8 9 -14 9 -5 0 -21 9 -35 20 -16 12 -34 18
-47 14 -13 -3 -39 5 -66 20 -25 14 -52 26 -62 26 -9 0 -18 5 -20 12 -2 6 -33
21 -69 32 -41 13 -64 26 -64 36 0 10 -16 17 -52 23 -29 5 -53 13 -53 18 0 6
10 7 23 4 12 -4 30 -9 40 -11 9 -3 17 -1 17 4 0 14 -63 24 -96 16 -23 -6 -26
-4 -21 11 6 15 3 16 -20 11 -20 -5 -24 -4 -13 3 8 6 12 12 10 14 -27 22 -59
37 -77 37 -18 0 -23 6 -23 27 0 21 -3 24 -12 15 -22 -22 -29 -13 -12 16 l16
27 -25 -27 c-25 -27 -44 -38 -33 -19 3 5 -1 12 -10 15 -10 4 -31 -5 -53 -21
-20 -15 -459 -448 -976 -963 -516 -514 -1092 -1087 -1278 -1272 -187 -186
-343 -338 -348 -338 -4 0 -11 5 -14 10 -3 6 -2 10 3 10 6 0 13 7 16 16 4 10 2
13 -7 7 -32 -19 -35 -28 -19 -47 10 -11 12 -16 6 -13 -7 4 -17 0 -24 -8 -14
-17 -30 -20 -30 -4 0 5 4 8 9 5 5 -3 15 2 22 11 12 15 12 16 -3 10 -13 -4 -15
-2 -11 11 6 14 4 15 -9 5 -8 -7 -18 -10 -22 -6 -4 4 -10 3 -14 -2 -4 -6 -20
-16 -37 -23 l-30 -14 25 24 c13 13 29 23 35 23 5 1 9 6 8 12 -1 6 442 457 985
1003 543 546 989 997 991 1003 5 14 71 77 81 77 7 0 413 411 473 479 20 23 34
47 31 53 -3 5 1 8 9 6 15 -3 17 0 17 21 0 5 -24 16 -52 26 -29 9 -69 30 -89
46 -20 16 -40 29 -44 29 -4 0 -19 9 -34 19 -15 11 -43 22 -64 26 -20 4 -37 11
-37 16 0 5 -20 14 -45 20 -26 7 -55 22 -68 38 -12 14 -39 35 -60 46 -20 11
-37 23 -37 26 0 13 -75 53 -102 55 -15 1 -40 9 -55 17 -15 8 -46 23 -68 33
-22 11 -42 22 -45 25 -3 4 -15 9 -27 13 -13 4 -23 12 -23 17 0 5 -13 9 -28 9
-46 0 -162 71 -162 99 0 6 -6 11 -14 11 -22 0 -146 60 -146 70 0 5 -18 14 -40
20 -22 6 -40 15 -40 21 0 5 -10 14 -22 19 -13 6 -30 14 -38 19 -8 5 -44 18
-80 30 -36 12 -66 26 -68 31 -2 6 -10 10 -18 10 -8 0 -14 6 -14 14 0 8 -7 16
-15 20 -8 3 -15 12 -15 21 0 8 -6 15 -14 15 -8 0 -16 7 -19 15 -4 8 -22 21
-42 29 -19 8 -35 20 -35 25 0 17 -28 13 -38 -5 -8 -15 -10 -15 -15 0 -4 10 -3
15 2 12 5 -3 14 1 21 9 7 8 16 13 20 10 5 -3 7 1 6 7 -1 7 -6 13 -11 13 -6 0
-9 -3 -7 -8 1 -4 -9 -12 -23 -17 -18 -7 -23 -14 -18 -26 5 -13 3 -16 -10 -11
-12 4 -36 -12 -83 -56 l-65 -62 603 -609 c334 -338 603 -617 603 -627 0 -9 4
-21 8 -25 4 -5 5 0 1 11 -4 12 18 -3 52 -35 58 -53 67 -70 40 -70 -8 0 -13 8
-12 18 1 11 -6 16 -17 15 -12 0 -17 4 -13 13 4 10 0 14 -11 12 -10 -2 -18 3
-18 12 0 16 -33 20 -52 6 -8 -5 -13 -4 -13 3 0 7 -5 9 -12 5 -7 -4 -8 -3 -4 4
4 7 1 12 -8 12 -8 0 -16 -5 -18 -11 -2 -7 -10 -4 -18 7 -14 16 -13 17 3 11 9
-3 17 -4 17 0 0 7 -32 32 -43 33 -5 0 -5 -6 -1 -12 13 -25 -113 99 -750 730
l-418 415 -487 -485 c-1324 -1318 -1522 -1513 -1533 -1510 -7 2 -9 0 -5 -4 10
-11 -144 -165 -157 -157 -6 3 -8 2 -3 -2 10 -11 -63 -86 -76 -78 -6 3 -7 1 -4
-4 4 -6 0 -16 -7 -22 -19 -16 -32 5 -16 24 7 8 9 15 4 15 -4 0 3 12 17 28 l24
27 -25 -22 c-20 -17 -29 -19 -44 -11 -14 8 -22 6 -35 -6 -15 -16 -15 -17 0
-11 10 4 19 0 22 -10 5 -12 1 -14 -18 -11 -14 3 -23 1 -20 -5 4 -5 -2 -6 -11
-2 -13 5 -15 3 -9 -8 4 -8 4 -11 0 -6 -5 4 -20 -3 -34 -15 -14 -13 3 7 38 44
36 37 69 64 73 62 4 -3 8 -1 8 5 0 18 62 81 73 74 5 -3 7 -2 4 4 -8 12 144
168 1111 1138 1010 1014 1029 1034 1013 1044 -7 5 -250 245 -540 535 -425 424
-531 525 -547 520 -15 -5 -16 -4 -4 5 13 9 13 12 -2 27 -14 14 -20 15 -32 5
-13 -11 -14 -9 -11 11 4 19 -15 42 -98 124 -56 55 -108 99 -115 96 -7 -2 -10
-8 -6 -13 3 -5 0 -9 -6 -9 -6 0 -8 -5 -4 -12 4 -6 3 -8 -4 -4 -13 8 -68 -42
-64 -58 2 -6 0 -8 -4 -3 -10 9 -85 -63 -78 -75 3 -5 1 -7 -4 -6 -5 2 -453
-438 -996 -977 -543 -539 -992 -978 -999 -977 -7 2 -9 0 -4 -4 10 -10 -103
-125 -115 -118 -5 4 -2 14 8 25 9 10 21 16 27 12 6 -3 7 -1 3 6 -6 9 -11 9
-21 1 -10 -8 -14 -7 -18 2 -2 7 -8 9 -13 5 -5 -4 -2 -12 5 -16 9 -6 10 -11 3
-15 -6 -4 -9 -13 -6 -20 5 -14 -23 -43 -33 -32 -3 3 -15 -2 -25 -11 -15 -13
-21 -14 -31 -4 -9 10 -8 11 6 6 9 -4 17 -3 17 2 0 20 -14 23 -37 8 -14 -9 -23
-11 -23 -5 0 6 -5 8 -10 5 -6 -4 -7 -12 -4 -18 4 -7 4 -9 -1 -5 -4 4 -15 2
-24 -4 -9 -7 -5 0 8 14 13 15 29 24 35 22 15 -6 38 19 34 34 -4 16 103 123
115 115 6 -3 7 -1 3 6 -5 8 184 204 537 559 300 301 564 567 587 592 23 25
269 273 547 552 l505 507 -18 31 c-11 17 -24 28 -32 25 -7 -3 -10 0 -7 6 7 11
-25 40 -36 33 -4 -2 -6 3 -5 12 0 9 -10 23 -24 32 -25 16 -25 16 -7 -4 9 -11
17 -24 17 -29 0 -4 -9 2 -20 15 -11 12 -17 26 -14 31 7 12 -67 79 -79 72 -6
-4 -7 -1 -2 7 5 8 -168 187 -533 554 -298 297 -548 550 -556 561 -14 19 -36
-1 -458 -424 -244 -244 -438 -445 -432 -448 7 -2 63 -56 125 -119 107 -108
140 -148 108 -129 -8 5 -3 -4 10 -18 14 -15 27 -25 29 -22 3 3 -3 12 -14 20
-10 8 -14 15 -8 15 5 0 23 -14 40 -31 21 -22 24 -28 10 -23 -15 6 -17 4 -11
-7 5 -8 1 -7 -12 4 -11 9 -25 17 -31 17 -11 0 -52 47 -52 61 0 5 8 6 18 2 18
-7 17 -5 -12 17 -11 8 -17 10 -13 3 4 -6 3 -14 -2 -17 -14 -9 -61 33 -61 55 0
14 -4 18 -12 13 -10 -6 -10 -4 0 8 10 13 10 18 1 24 -8 5 -9 3 -4 -6 5 -7 4
-11 -1 -9 -5 3 -22 11 -39 19 -16 8 -31 15 -33 16 -2 1 1 11 7 23 8 14 8 22
-1 27 -6 4 -8 3 -5 -3 4 -6 -2 -22 -13 -34 -16 -20 -19 -20 -13 -5 5 15 3 18
-8 14 -10 -4 -15 1 -15 13 0 12 4 15 11 9 8 -7 12 -5 12 5 0 8 -4 12 -8 9 -4
-2 -15 4 -25 13 -17 17 -18 17 -11 -1 6 -14 4 -17 -9 -12 -19 7 -22 4 -899
-865 -586 -582 -574 -571 -588 -562 -6 3 -7 1 -3 -5 4 -7 -5 -22 -21 -36 -28
-24 -43 -25 -43 -3 0 8 3 8 9 -2 6 -9 11 -10 15 -2 4 6 3 11 -1 11 -5 0 -14 9
-21 20 -10 16 -10 26 -1 43 l11 22 -21 -23 c-12 -12 -19 -27 -16 -32 3 -6 -2
-7 -12 -4 -12 4 -14 3 -5 -3 9 -7 6 -15 -14 -32 -27 -23 -26 -44 1 -21 16 13
20 5 15 -30 -1 -11 3 -10 21 5 13 11 8 3 -10 -18 -25 -26 -38 -34 -45 -26 -8
7 -5 15 8 25 11 7 18 15 15 16 -34 21 -52 27 -62 22 -7 -4 24 31 68 78 44 47
85 84 91 82 6 -1 11 4 10 12 0 8 217 233 484 502 844 847 894 898 885 919 -5
10 -8 21 -7 25 2 8 -40 33 -48 29 -2 -1 -5 2 -6 8 -2 8 -1 7 3 0 4 -8 8 -7 14
2 6 10 12 8 26 -9 13 -16 22 -19 33 -12 13 8 13 10 -2 10 -9 0 -21 7 -26 17
-6 10 -16 14 -26 10 -12 -5 -22 2 -34 23 -9 16 -23 30 -29 30 -7 0 -13 5 -13
11 0 6 7 9 15 5 12 -4 13 -2 3 14 -12 18 -12 18 -26 -1 -11 -16 -11 -23 -1
-37 8 -9 1 -6 -14 7 -15 14 -27 29 -26 35 0 6 3 5 6 -1 2 -7 9 -13 15 -13 6 0
6 6 -2 15 -7 8 -16 12 -21 9 -13 -7 -159 138 -152 150 3 6 3 8 -2 4 -11 -11
-36 12 -28 26 3 6 2 8 -2 3 -14 -12 -103 82 -98 103 3 10 -1 21 -8 26 -9 5
-11 2 -6 -10 11 -28 -22 -4 -89 66 -63 65 -71 88 -46 134 10 18 7 25 -16 45
l-27 24 24 -27 c33 -38 8 -36 -30 1 -33 33 -38 53 -11 45 14 -5 14 -4 2 4 -8
6 -19 7 -25 3 -14 -10 -64 -5 -81 10 -20 16 -18 0 3 -25 l17 -21 -22 21 c-21
19 -22 22 -8 49 12 23 13 31 3 37 -9 6 -9 8 1 8 6 0 12 5 12 11 0 5 -4 7 -10
4 -5 -3 -7 0 -4 8 3 9 -7 20 -30 31 -20 9 -35 20 -33 24 2 8 -7 12 -27 12 -18
0 -15 -33 4 -42 12 -5 12 -7 -2 -7 -10 -1 -18 -6 -18 -11 0 -6 -6 -6 -13 2
-12 10 -12 15 0 26 7 7 10 19 7 25 -15 26 -37 46 -45 41 -5 -3 -9 4 -9 15 0
11 5 23 10 26 16 10 12 22 -9 28 -14 3 -18 1 -14 -10 5 -13 3 -13 -15 -2 -11
7 -19 16 -16 20 7 11 -20 26 -43 24 -13 -1 -23 2 -23 7 0 4 -7 8 -15 8 -17 0
-19 18 -6 54 10 25 -7 54 -23 39 -4 -4 -4 1 0 11 6 15 66 -41 325 -300 175
-175 316 -322 313 -326 -3 -5 -1 -7 5 -6 8 3 501 -478 501 -489 0 -2 -4 -2 -8
1 -5 3 -9 -1 -9 -9 0 -8 5 -11 11 -7 6 3 18 5 26 4 8 -1 208 191 450 432 l434
435 -146 147 -145 146 -31 -22 c-34 -25 -94 -30 -130 -11 -56 30 -73 118 -32
173 l22 30 -38 41 c-22 23 -43 45 -49 49 -31 24 28 1 137 -53 l123 -61 182
-181 182 -181 93 89 c51 49 698 694 1438 1432 740 739 1355 1349 1366 1358 12
8 24 11 28 7 4 -3 4 1 0 11 -6 16 4 22 29 18 4 0 6 2 6 7 -4 21 3 34 15 29 10
-4 13 6 11 48 -3 55 2 62 48 71 15 3 16 2 5 -10 -7 -8 -15 -14 -18 -14 -21 1
-29 -5 -27 -22 1 -16 13 -8 64 42 40 39 59 66 53 72 -11 11 -43 -12 -37 -28 3
-7 -4 -12 -14 -12 -17 0 -17 2 -2 18 9 10 12 18 7 19 -5 0 0 4 11 9 26 11 33
12 39 2z m-6051 -409 c20 -17 20 -17 13 2 -6 18 -5 18 16 -3 23 -23 23 -23 4
-38 -11 -8 -16 -14 -11 -14 5 0 -4 -13 -20 -30 -23 -24 -31 -27 -47 -19 -25
13 -32 6 -19 -19 8 -16 5 -24 -19 -47 -17 -16 -33 -24 -41 -20 -8 6 -10 4 -4
-4 5 -9 -46 -67 -152 -174 -87 -89 -260 -265 -384 -392 -124 -126 -590 -593
-1036 -1038 -605 -602 -816 -806 -831 -804 -11 2 -27 8 -34 15 -8 6 -19 8 -23
4 -5 -4 -5 -1 -1 6 4 6 2 12 -4 12 -8 0 -8 4 0 13 5 6 20 24 31 40 11 15 25
24 31 21 7 -4 8 -2 4 4 -4 8 382 401 1011 1030 1224 1225 1422 1417 1436 1403
16 -16 -11 -43 -37 -36 -21 6 -21 6 -2 -9 19 -15 46 -23 33 -9 -9 9 13 34 24
27 14 -8 11 10 -5 32 -19 26 -2 51 22 32 13 -11 15 -10 10 4 -12 30 6 36 35
11z m19940 -215 c9 -5 17 -14 17 -21 0 -16 -141 -157 -158 -157 -7 0 -20 16
-28 36 -18 42 -7 88 29 122 42 40 89 46 140 20z m-16632 -37 c24 -24 29 -38
29 -76 0 -38 -5 -52 -29 -76 -24 -23 -38 -29 -74 -29 -82 0 -133 71 -104 143
20 46 52 67 105 67 35 0 49 -6 73 -29z m9372 -108 c27 -25 37 -55 23 -72 -8
-11 -8 -13 2 -7 19 11 15 -12 -9 -50 -25 -41 -47 -54 -91 -54 -56 0 -97 41
-105 103 -2 21 1 28 10 24 8 -3 14 1 14 9 0 7 -5 11 -10 7 -19 -12 14 37 36
52 28 19 102 13 130 -12z m-12353 -162 c87 -61 45 -191 -62 -191 -32 0 -47 7
-74 34 -64 64 -37 149 56 179 21 7 50 -1 80 -22z m5678 -11 c98 -60 60 -200
-53 -200 -53 0 -91 28 -104 77 -16 56 20 123 74 136 37 9 50 7 83 -13z m-4469
-65 c26 -13 61 -67 61 -95 0 -28 -35 -82 -61 -95 -54 -29 -125 -8 -148 42 -22
47 -14 92 23 129 38 38 77 44 125 19z m7644 -36 c15 -11 32 -37 38 -58 33
-111 -112 -187 -186 -99 -24 28 -27 39 -22 82 3 38 11 55 31 73 36 30 103 31
139 2z m-9296 -149 c39 -23 56 -74 42 -125 -13 -46 -52 -75 -101 -75 -96 0
-147 99 -92 179 31 43 99 53 151 21z m3562 -124 c33 -17 51 -54 51 -102 0 -49
-54 -104 -101 -104 -110 0 -157 133 -71 200 29 23 82 26 121 6z m42648 -121
c65 -19 108 -52 93 -70 -9 -11 -22 -8 -67 16 -174 92 -363 -50 -322 -242 20
-94 120 -170 220 -169 43 1 104 23 130 46 18 16 21 16 36 2 14 -15 12 -18 -24
-42 -114 -76 -285 -46 -363 64 -25 35 -50 110 -50 150 0 102 75 207 170 240
67 24 111 25 177 5z m1615 -11 c52 -26 70 -45 57 -60 -9 -11 -16 -11 -38 5
-92 64 -208 54 -291 -27 -40 -40 -50 -56 -60 -106 -39 -189 146 -324 326 -239
l34 17 0 88 c0 81 2 88 20 88 19 0 20 -7 20 -93 0 -105 -4 -113 -75 -143 -49
-21 -155 -23 -209 -5 -49 17 -112 73 -137 124 -70 136 -2 307 141 358 64 23
160 20 212 -7z m1614 11 c108 -32 178 -129 178 -245 -1 -150 -104 -252 -254
-254 -89 -1 -148 23 -203 84 -93 104 -90 254 7 350 74 71 172 95 272 65z
m-4826 -10 c44 -23 70 -62 70 -107 0 -44 -21 -91 -47 -108 -14 -9 -15 -12 -4
-17 7 -3 27 -17 43 -32 38 -34 49 -101 23 -150 -29 -57 -77 -71 -247 -71
l-148 0 0 250 0 250 140 0 c105 0 148 -4 170 -15z m815 -226 c61 -132 112
-244 113 -250 2 -5 -6 -9 -18 -9 -17 0 -28 14 -53 70 l-31 70 -144 0 -144 0
-31 -70 c-26 -56 -36 -70 -54 -70 l-22 0 23 53 c13 28 52 113 86 187 34 74 75
163 91 198 23 50 33 62 51 62 20 -1 36 -30 133 -241z m1325 86 c0 -85 2 -155
4 -155 2 0 72 70 157 155 118 120 158 155 178 155 22 0 12 -14 -83 -109 -65
-65 -107 -115 -103 -123 3 -7 53 -68 111 -136 58 -68 106 -125 106 -128 0 -2
-10 -4 -22 -4 -17 1 -53 35 -127 121 l-104 120 -59 -58 -58 -57 0 -63 c0 -56
-2 -63 -20 -63 -19 0 -20 7 -20 250 0 243 1 250 20 250 19 0 20 -7 20 -155z
m1880 133 c65 -34 85 -67 85 -143 0 -71 -18 -105 -73 -140 -17 -11 -29 -25
-27 -32 2 -6 27 -43 54 -81 28 -39 51 -73 51 -77 0 -3 -10 -5 -22 -3 -15 2
-42 30 -77 81 l-55 77 -98 0 -98 0 0 -80 c0 -73 -2 -80 -20 -80 -19 0 -20 7
-20 250 l0 250 128 0 c113 0 133 -3 172 -22z m1431 -155 c4 -193 12 -222 69
-264 67 -50 190 -29 232 39 21 34 23 50 26 220 3 172 5 182 23 182 18 0 19 -9
19 -167 0 -93 -5 -185 -10 -205 -30 -106 -142 -159 -262 -124 -57 16 -84 39
-114 96 -16 29 -19 64 -22 218 -4 176 -3 182 16 182 19 0 20 -8 23 -177z
m1029 -36 l165 -212 3 213 c2 204 3 212 22 212 19 0 20 -8 20 -250 0 -237 -1
-250 -19 -250 -12 0 -74 71 -182 209 l-164 208 -3 -208 -2 -209 -25 0 -25 0 0
250 0 250 23 0 c17 -1 61 -50 187 -213z m990 192 c99 -45 145 -117 145 -229 0
-112 -46 -184 -145 -229 -38 -17 -66 -21 -182 -21 l-138 0 0 250 0 250 138 0
c116 0 144 -4 182 -21z m-45989 -268 c24 -25 29 -37 29 -78 -1 -51 -10 -68
-50 -96 -76 -53 -183 23 -166 117 16 83 127 116 187 57z m-3831 -10 c57 -41
63 -116 12 -163 -36 -34 -65 -42 -107 -28 -48 16 -75 53 -75 104 0 95 93 142
170 87z m1580 -230 c36 -26 51 -61 46 -104 -7 -65 -64 -105 -130 -93 -88 17
-122 127 -59 190 39 40 94 42 143 7z m5282 -70 c45 -51 32 -141 -24 -168 -63
-30 -118 -19 -148 30 -32 52 -26 103 15 144 33 33 39 35 82 30 37 -4 54 -12
75 -36z m3422 -32 c28 -13 56 -64 56 -101 0 -35 -34 -83 -69 -97 -75 -31 -151
22 -151 106 0 83 82 129 164 92z m-6456 -295 c62 -41 61 -146 -1 -184 -51 -32
-103 -26 -143 14 -98 98 27 247 144 170z m-3022 -158 c28 -28 34 -42 34 -76 0
-34 -6 -48 -34 -76 -73 -73 -187 -25 -186 78 1 66 44 107 114 108 30 0 45 -7
72 -34z m16847 -66 c39 -44 38 -110 -2 -151 -24 -24 -38 -29 -76 -29 -38 0
-52 5 -76 29 -23 24 -29 38 -29 74 0 106 114 154 183 77z m-15636 -24 c25 -21
28 -31 28 -81 0 -51 -3 -59 -33 -86 -59 -52 -146 -33 -175 40 -20 49 -8 101
30 131 38 30 113 28 150 -4z m4650 -188 c50 -46 53 -116 6 -162 -93 -93 -238
18 -177 135 30 60 121 74 171 27z m3321 -285 c13 -8 30 -31 39 -51 31 -75 -22
-152 -107 -152 -34 0 -48 6 -76 34 -98 98 26 243 144 169z m3730 7 c1 0 11
-15 22 -32 32 -52 27 -103 -14 -144 -28 -28 -42 -34 -76 -34 -34 0 -48 6 -76
34 -84 84 -5 215 111 184 16 -4 31 -8 33 -8z m-11105 -210 c36 -29 52 -81 37
-125 -16 -50 -53 -75 -109 -75 -68 1 -111 44 -111 113 0 31 7 46 34 73 29 29
41 34 79 34 29 0 53 -7 70 -20z m18711 -32 c51 -23 75 -104 47 -156 -24 -44
-94 -64 -145 -40 -52 23 -76 106 -45 156 29 46 92 64 143 40z m-19523 -41 c39
-26 64 -84 55 -123 -4 -15 -21 -40 -38 -56 -24 -23 -39 -28 -78 -28 -40 0 -53
5 -78 29 -58 58 -44 147 28 183 46 24 70 23 111 -5z m2402 -187 c39 -44 38
-107 -2 -152 -26 -29 -36 -33 -79 -33 -39 0 -56 5 -76 24 -31 29 -50 82 -41
113 9 28 43 67 70 79 38 17 98 2 128 -31z m5467 -319 c36 -26 53 -81 37 -128
-16 -48 -55 -76 -106 -76 -51 0 -89 25 -108 71 -45 107 79 201 177 133z
m15412 -50 c29 -26 33 -35 33 -80 0 -42 -5 -55 -28 -78 -23 -23 -36 -28 -78
-28 -45 0 -54 4 -80 33 -43 47 -41 102 5 148 46 46 101 48 148 5z m-18618 -58
c54 -39 62 -115 19 -163 -72 -79 -188 -42 -200 62 -4 37 -1 49 23 77 15 18 37
37 48 42 29 12 81 4 110 -18z m-1850 -163 c18 -17 37 -42 40 -56 10 -38 -11
-89 -47 -120 -80 -67 -204 18 -176 121 23 82 119 111 183 55z m8669 19 c38
-20 57 -51 57 -99 0 -56 -31 -98 -80 -109 -83 -18 -140 27 -140 111 0 43 4 54
31 79 34 32 90 39 132 18z m15474 -119 c8 0 28 -13 44 -29 24 -24 29 -38 29
-76 0 -38 -5 -52 -29 -76 -55 -55 -150 -34 -181 40 -15 38 -8 70 25 110 25 29
56 42 83 35 8 -2 20 -4 29 -4z m3679 -104 c50 -50 44 -116 -14 -163 -25 -20
-96 -16 -124 7 -82 64 -39 190 64 190 32 0 47 -7 74 -34z m-23081 -130 c55
-23 82 -103 54 -159 -21 -40 -51 -57 -104 -57 -53 0 -83 17 -104 57 -28 54 -1
135 52 158 41 18 60 18 102 1z m-2825 -11 c58 -30 76 -104 40 -163 -22 -36
-54 -52 -107 -52 -27 0 -43 8 -69 34 -95 95 16 243 136 181z m14379 -380 c59
-30 74 -113 30 -169 -77 -98 -237 -1 -188 115 24 59 99 85 158 54z m-8093 -41
c57 -27 80 -98 52 -158 -36 -80 -162 -76 -206 5 -18 34 -8 96 20 126 41 45 80
53 134 27z m3943 -220 c80 -67 31 -194 -76 -194 -38 0 -50 5 -79 34 -26 26
-34 42 -34 71 0 43 24 89 54 104 41 19 102 13 135 -15z m7861 -421 c78 -71 39
-193 -63 -196 -70 -2 -117 45 -117 119 0 28 8 44 34 70 45 45 101 48 146 7z
m14257 -200 c102 -48 66 -203 -47 -203 -112 0 -149 154 -48 203 42 21 52 21
95 0z m-22742 -159 c34 -16 65 -65 65 -104 0 -29 -26 -76 -52 -94 -12 -9 -42
-16 -66 -16 -37 0 -50 6 -78 34 -28 28 -34 42 -34 76 0 52 13 76 53 100 39 24
68 25 112 4z m12187 -102 c95 -88 -15 -237 -131 -177 -29 14 -61 68 -61 102 0
31 39 83 73 98 41 17 85 9 119 -23z m-8045 17 c66 -25 98 -90 73 -150 -19 -45
-56 -69 -107 -69 -38 0 -50 5 -79 34 -27 27 -34 42 -34 73 0 55 31 97 85 115
29 9 31 9 62 -3z m15221 -137 c54 -50 54 -111 2 -163 -45 -46 -122 -37 -167
19 -19 23 -16 103 5 128 43 53 113 60 160 16z m-3528 -87 c31 -33 36 -92 11
-133 -69 -109 -242 -30 -201 92 27 84 129 106 190 41z m-16422 -295 c52 -32
66 -92 36 -155 -23 -50 -103 -73 -154 -45 -43 23 -59 52 -60 104 0 42 5 53 34
82 41 41 92 46 144 14z m8366 -224 c45 -19 66 -52 66 -104 0 -37 -6 -50 -35
-79 -33 -33 -39 -35 -85 -31 -60 6 -86 27 -101 80 -14 52 12 106 61 130 42 22
51 22 94 4z m-4314 -103 c59 -53 48 -153 -20 -188 -86 -45 -180 22 -167 119 8
58 52 96 112 96 35 0 52 -6 75 -27z m21840 -150 c90 -53 55 -188 -53 -200 -43
-5 -49 -3 -82 30 -28 28 -35 43 -35 74 1 70 42 112 108 113 19 0 47 -7 62 -17z
m5257 -74 c26 -9 73 -54 73 -69 0 -3 -6 -12 -12 -19 -10 -11 -10 -12 -1 -7 9
5 12 -2 9 -24 -2 -17 -7 -34 -11 -38 -4 -4 -4 4 0 16 6 22 5 23 -14 12 -12 -6
-26 -8 -31 -5 -6 3 -10 -5 -10 -19 0 -13 -6 -26 -12 -29 -7 -2 -10 -7 -6 -11
3 -4 17 -3 30 4 21 10 21 10 5 -3 -35 -29 -115 -11 -140 32 -36 61 -16 123 48
156 36 18 36 18 72 4z m-19104 -247 c24 -25 30 -39 31 -77 1 -42 -3 -50 -36
-81 -53 -48 -106 -48 -154 0 -28 28 -34 42 -34 76 0 52 13 76 53 101 44 28
101 20 140 -19z m-8731 -141 c35 -39 39 -108 8 -151 -11 -15 -17 -30 -14 -33
3 -3 -37 -5 -89 -4 -72 1 -93 5 -86 13 7 8 4 23 -9 45 -28 52 -5 124 50 156
39 23 108 10 140 -26z m19287 -15 c69 -36 67 -158 -4 -196 -90 -48 -195 35
-166 131 21 71 100 101 170 65z m-6963 -145 c85 -52 59 -188 -40 -206 -73 -14
-126 28 -134 105 -4 46 -2 52 31 85 28 28 43 35 74 35 21 0 52 -9 69 -19z
m-8059 -24 c31 -29 36 -40 36 -78 0 -81 -53 -127 -136 -116 -76 10 -116 89
-82 161 35 73 121 89 182 33z m11605 -44 c83 -73 37 -203 -72 -203 -67 0 -113
50 -113 121 0 34 29 78 64 97 31 17 95 9 121 -15z m8957 -239 c39 -32 49 -80
26 -127 -17 -35 -65 -67 -102 -67 -32 0 -84 39 -99 76 -43 104 87 192 175 118z
m-3190 -570 c80 -67 31 -194 -75 -194 -34 0 -51 6 -76 29 -29 26 -33 35 -33
81 0 46 4 55 33 81 44 39 107 41 151 3z m-3313 -318 c28 -28 34 -41 34 -78 0
-50 -18 -82 -60 -103 -125 -65 -235 106 -126 197 14 11 38 17 70 18 42 0 53
-5 82 -34z m5379 -420 c38 -16 65 -60 65 -107 0 -47 -56 -99 -107 -99 -21 0
-49 7 -61 16 -25 17 -52 64 -52 89 0 33 32 84 63 99 40 19 49 20 92 2z m-3189
-430 c28 -28 34 -42 34 -76 0 -34 -6 -48 -34 -76 -47 -47 -100 -48 -151 -3
-30 26 -35 37 -35 73 1 75 40 115 114 116 30 0 45 -7 72 -34z m-6734 -78 c62
-43 58 -148 -6 -188 -123 -75 -246 78 -145 180 20 19 42 30 67 32 41 4 46 2
84 -24z m11783 -48 c-3 -5 1 -10 10 -10 9 0 13 5 10 10 -10 15 28 12 64 -6 21
-10 30 -21 27 -31 -3 -8 -2 -11 3 -8 13 7 23 -11 27 -47 3 -24 1 -29 -12 -24
-14 5 -15 4 -5 -8 29 -35 -57 -94 -114 -77 -16 4 -29 13 -28 19 2 6 -3 9 -10
6 -15 -5 -47 46 -47 76 0 31 29 82 42 74 6 -4 8 -3 4 4 -3 6 2 15 11 21 23 13
26 13 18 1z m-8395 -15 c64 -33 78 -131 27 -182 -51 -51 -149 -37 -182 27 -53
103 52 208 155 155z m-8107 -223 c-5 -12 1 -10 20 7 32 29 100 55 105 41 2 -6
11 -10 20 -10 10 0 26 -7 36 -15 10 -8 22 -13 25 -10 4 2 8 -4 9 -13 1 -9 4
-33 8 -53 8 -51 -16 -102 -59 -122 -43 -21 -70 -21 -107 -2 -44 23 -60 53 -60
113 0 36 -4 51 -11 46 -8 -5 -8 -1 0 13 12 24 -3 45 -27 35 -15 -5 -15 -4 -2
11 14 15 16 15 32 -4 9 -11 14 -28 11 -37z m-11799 -32 c20 -20 30 -40 33 -72
5 -40 2 -49 -26 -81 -37 -41 -77 -53 -126 -37 -46 15 -75 57 -75 110 0 105
118 153 194 80z m1220 -2 c14 -6 33 -23 43 -37 54 -81 -2 -181 -100 -181 -31
0 -46 7 -73 34 -29 29 -34 41 -34 83 1 90 81 140 164 101z m5698 -40 c9 -1 15
-4 13 -6 -2 -2 5 -21 16 -40 23 -44 24 -73 4 -112 -22 -42 -53 -60 -106 -60
-57 0 -94 26 -108 77 -16 58 4 113 51 140 21 12 44 12 130 1z m18317 -174 c41
-16 71 -60 71 -104 0 -97 -132 -144 -194 -69 -49 58 -30 145 38 175 39 17 38
17 85 -2z m-25719 -19 c102 -53 60 -215 -55 -215 -38 0 -83 26 -100 60 -53
103 52 208 155 155z m3707 -5 c43 -26 56 -54 50 -108 -7 -62 -40 -93 -105
-100 -44 -4 -53 -1 -81 24 -105 95 15 258 136 184z m3083 -75 c54 -28 75 -98
45 -155 -21 -42 -53 -60 -103 -60 -37 0 -50 6 -78 34 -95 95 16 243 136 181z
m9072 -34 c22 -25 28 -41 28 -77 0 -39 -5 -51 -34 -80 -39 -39 -86 -45 -136
-19 -31 16 -60 61 -60 93 0 109 131 163 202 83z m-4444 -5 c36 -18 57 -58 57
-107 0 -108 -165 -148 -216 -52 -55 103 55 213 159 159z m11079 -123 c36 -17
63 -61 63 -103 0 -55 -57 -110 -115 -110 -100 0 -150 125 -77 192 45 42 75 47
129 21z m-3320 -23 c6 0 25 -14 42 -31 26 -25 31 -39 31 -76 0 -38 -5 -50 -34
-79 -29 -29 -41 -34 -79 -34 -56 0 -92 27 -108 80 -10 32 -9 44 7 77 21 42 76
77 109 68 11 -2 25 -5 32 -5z m-16794 -22 c25 -13 57 -68 57 -99 0 -70 -88
-131 -155 -109 -44 15 -66 41 -72 89 -8 58 11 96 60 120 40 20 69 20 110 -1z
m4018 -64 c62 -32 74 -126 23 -178 -74 -73 -194 -23 -194 81 0 38 5 50 34 79
39 39 86 45 137 18z m-2437 -42 c25 -23 46 -66 46 -94 0 -30 -33 -84 -60 -98
-51 -27 -131 -6 -155 41 -20 38 -18 99 3 126 41 53 121 65 166 25z m-2386 -38
c37 -25 56 -80 43 -126 -26 -87 -145 -107 -203 -34 -23 27 -23 104 -2 135 35
49 108 61 162 25z m8935 -14 c112 -88 -15 -268 -133 -188 -64 43 -72 124 -18
178 24 25 38 30 77 30 33 0 56 -6 74 -20z m17130 -11 c78 -36 73 -155 -9 -194
-94 -45 -191 62 -140 154 25 46 95 65 149 40z m-12917 -130 c77 -72 34 -199
-67 -199 -51 0 -87 18 -105 51 -19 37 -18 99 2 128 37 52 125 63 170 20z
m-8485 -56 c35 -21 61 -81 53 -123 -10 -45 -66 -90 -114 -90 -72 0 -128 74
-109 144 21 75 103 108 170 69z m3521 -75 c15 -10 32 -34 37 -53 26 -97 -62
-179 -152 -141 -97 40 -94 179 4 213 40 13 73 8 111 -19z m19737 -74 c34 -17
61 -59 61 -97 0 -40 -41 -91 -82 -101 -99 -25 -176 96 -108 170 43 45 78 53
129 28z m-5015 -4 c14 -5 35 -24 47 -42 46 -74 -6 -168 -94 -168 -148 0 -153
216 -5 219 15 1 38 -3 52 -9z m-20051 -29 c87 -33 98 -164 18 -205 -51 -27
-98 -21 -137 18 -28 28 -34 42 -34 76 0 52 13 76 53 100 35 22 63 25 100 11z
m13588 -39 c64 -57 43 -166 -37 -192 -85 -28 -160 31 -151 120 7 62 49 100
112 100 35 0 52 -6 76 -28z m-16455 -1 c37 -22 59 -78 49 -119 -16 -66 -95
-107 -156 -82 -45 19 -69 56 -69 107 0 38 5 50 34 79 40 40 92 46 142 15z
m1753 -27 c85 -71 41 -199 -69 -199 -108 0 -155 124 -74 195 45 39 99 41 143
4z m10362 -47 c77 -48 58 -183 -30 -207 -60 -16 -98 -2 -134 50 -67 97 62 221
164 157z m7611 -6 c29 -26 33 -36 33 -80 0 -41 -5 -55 -29 -80 -25 -26 -37
-31 -79 -31 -43 0 -53 4 -84 35 -33 33 -35 39 -30 82 7 65 49 103 112 103 35
0 52 -6 77 -29z m-12092 -16 c58 -30 76 -104 40 -163 -24 -40 -62 -55 -115
-48 -103 13 -131 152 -43 206 39 24 78 25 118 5z m-2870 -24 c36 -26 51 -61
46 -104 -5 -45 -28 -74 -73 -93 -44 -19 -88 -8 -123 33 -90 103 39 244 150
164z m-3375 -222 c25 -25 30 -37 30 -79 0 -40 -5 -55 -25 -75 -70 -69 -181
-36 -197 58 -8 53 12 92 60 117 52 25 91 19 132 -21z m9841 -25 c27 -18 44
-56 44 -100 0 -100 -124 -148 -195 -74 -95 100 35 250 151 174z m13645 -3 c24
-25 29 -38 29 -78 0 -41 -5 -54 -28 -76 -36 -35 -79 -43 -126 -23 -69 29 -84
120 -29 178 22 23 35 28 76 28 40 0 53 -5 78 -29z m-17535 -15 c39 -39 45 -86
18 -137 -15 -29 -65 -59 -100 -59 -35 0 -87 34 -100 66 -24 56 -18 92 20 130
29 29 41 34 81 34 40 0 52 -5 81 -34z m7975 -33 c29 -17 59 -67 59 -97 0 -63
-57 -116 -126 -116 -54 0 -104 53 -104 110 0 52 13 76 53 100 39 24 80 25 118
3z m-11681 -68 c37 -19 60 -62 60 -111 0 -52 -53 -104 -106 -104 -78 0 -133
62 -120 135 14 75 98 115 166 80z m1452 -16 c36 -16 59 -55 60 -100 1 -52 -27
-90 -79 -108 -36 -13 -43 -12 -79 5 -55 27 -81 81 -65 134 6 22 23 48 38 59
28 23 88 28 125 10z m16613 -63 c44 -19 69 -66 62 -119 -15 -111 -164 -131
-213 -29 -18 39 -12 79 18 117 35 45 76 54 133 31z m-3163 -33 c80 -71 34
-203 -70 -203 -122 0 -159 172 -47 221 30 13 94 3 117 -18z m-7997 -29 c28
-18 45 -56 45 -100 0 -25 -9 -44 -33 -71 -30 -32 -39 -36 -82 -36 -43 0 -52 4
-82 36 -95 105 33 249 152 171z m16237 -27 c31 -20 51 -70 44 -109 -16 -85
-134 -121 -190 -59 -27 29 -33 104 -12 137 33 49 106 63 158 31z m-19529 -9
c25 -13 57 -68 57 -98 0 -39 -37 -90 -76 -106 -46 -19 -86 -11 -124 28 -24 23
-30 38 -30 72 0 95 87 148 173 104z m-4338 -22 c43 -18 67 -56 67 -105 -1 -67
-45 -111 -112 -111 -67 0 -111 44 -112 111 0 48 23 86 65 104 41 18 50 18 92
1z m11424 -83 c88 -75 23 -215 -93 -200 -81 11 -123 104 -79 177 33 57 117 68
172 23z m14364 -75 c48 -25 75 -76 63 -121 -11 -46 -63 -87 -108 -87 -50 1
-108 59 -108 108 0 77 88 135 153 100z m-18628 -40 c116 -91 7 -261 -124 -193
-28 14 -61 68 -61 100 0 27 40 92 64 103 37 18 91 14 121 -10z m-4375 -87 c30
-21 50 -76 43 -114 -3 -16 -19 -41 -35 -57 -24 -25 -38 -30 -77 -30 -60 0 -96
26 -112 80 -10 32 -9 44 7 77 34 69 113 89 174 44z m18012 0 c29 -26 33 -35
33 -81 0 -46 -4 -55 -33 -81 -62 -56 -156 -32 -182 46 -36 108 97 192 182 116z
m-6261 -28 c35 -21 61 -81 53 -123 -7 -35 -47 -78 -81 -86 -39 -10 -88 5 -118
36 -23 24 -28 39 -28 75 0 90 96 144 174 98z m-10001 -28 c74 -71 26 -195 -74
-195 -73 0 -116 42 -116 115 0 47 14 71 53 96 43 27 99 20 137 -16z m6051 -12
c29 -17 59 -67 59 -97 0 -35 -30 -85 -59 -100 -95 -50 -198 28 -170 128 20 74
104 108 170 69z m7096 -46 c30 -29 36 -40 37 -78 1 -29 -6 -53 -19 -71 -65
-88 -205 -44 -205 66 0 104 110 153 187 83z m-15935 -7 c107 -83 10 -249 -115
-197 -42 18 -67 60 -67 113 0 28 8 44 34 70 29 29 41 34 79 34 29 0 53 -7 69
-20z m5204 -84 c28 -28 34 -41 34 -78 0 -50 -18 -82 -60 -103 -85 -44 -182 28
-166 125 8 53 54 90 112 90 39 0 51 -5 80 -34z m-6860 -10 c28 -28 34 -42 34
-76 0 -55 -30 -96 -80 -111 -32 -10 -44 -9 -76 7 -78 39 -94 125 -34 186 23
23 37 28 75 28 40 0 52 -5 81 -34z m22694 -56 c62 -44 60 -142 -4 -181 -91
-55 -199 26 -166 126 23 71 109 99 170 55z m-12816 -54 c46 -19 66 -52 66
-107 0 -38 -6 -53 -29 -78 -25 -27 -36 -31 -80 -31 -41 0 -56 5 -81 28 -60 53
-47 151 24 186 39 19 58 20 100 2z m3644 -32 c28 -19 52 -65 52 -99 0 -103
-133 -153 -202 -75 -50 55 -30 154 36 180 34 14 90 11 114 -6z m-8642 -108
c27 -27 34 -42 34 -72 0 -86 -71 -139 -152 -115 -53 16 -81 60 -75 121 7 62
49 100 113 100 39 0 51 -5 80 -34z m19862 7 c60 -37 54 -146 -9 -179 -105 -54
-207 44 -153 147 28 55 103 70 162 32z m-23381 -22 c27 -20 43 -53 43 -92 0
-105 -128 -151 -201 -73 -34 36 -34 112 0 148 43 46 109 53 158 17z m18285 2
c30 -26 49 -77 42 -112 -3 -16 -19 -42 -36 -58 -24 -23 -38 -28 -79 -28 -44 0
-54 4 -80 33 -51 57 -33 154 35 183 31 13 94 4 118 -18z m-12782 -18 c42 -21
60 -53 60 -103 0 -37 -6 -50 -34 -78 -93 -93 -237 11 -181 130 29 61 94 82
155 51z m9726 -19 c29 -29 34 -41 34 -79 0 -51 -24 -88 -69 -107 -93 -38 -189
63 -145 155 20 43 55 64 108 65 30 0 45 -7 72 -34z m-13065 -3 c68 -40 74
-129 13 -182 -46 -41 -99 -42 -143 -5 -108 91 9 259 130 187z m23305 -29 c32
-15 38 -28 37 -71 0 -7 4 -11 11 -10 6 1 11 -9 12 -23 1 -32 -6 -51 -16 -45
-4 3 -7 -3 -6 -13 0 -10 -6 -16 -16 -16 -10 1 -16 -2 -13 -6 3 -4 -2 -11 -11
-14 -47 -18 -113 8 -133 51 -33 72 8 140 97 162 2 1 19 -6 38 -15z m-17306
-49 c40 -21 60 -53 60 -97 0 -77 -41 -118 -121 -118 -56 0 -109 50 -109 104 0
97 88 154 170 111z m3245 -35 c7 0 27 -14 44 -31 26 -25 31 -38 31 -78 0 -53
-18 -84 -60 -106 -112 -58 -225 90 -138 182 23 25 74 44 96 37 8 -2 20 -4 27
-4z m8978 -120 c36 -28 52 -81 37 -124 -15 -48 -43 -68 -98 -74 -44 -4 -53 -1
-83 26 -30 27 -34 36 -34 82 0 46 4 55 33 81 40 36 105 40 145 9z m-18845 -36
c73 -51 65 -167 -13 -200 -44 -18 -69 -18 -105 1 -68 35 -79 135 -20 188 35
32 101 37 138 11z m12835 -36 c62 -33 84 -97 52 -158 -21 -42 -53 -60 -103
-60 -37 0 -50 6 -78 34 -28 28 -34 42 -34 76 0 52 13 76 53 100 36 22 78 25
110 8z m-8558 -59 c25 -25 30 -37 30 -79 0 -40 -5 -54 -28 -78 -49 -51 -117
-51 -168 0 -53 54 -34 153 36 184 42 19 94 8 130 -27z m11561 12 c37 -22 59
-78 49 -119 -16 -66 -95 -107 -156 -82 -45 19 -69 56 -69 107 0 38 5 50 34 79
40 40 92 46 142 15z m-9303 -35 c67 -62 38 -180 -49 -202 -14 -4 -44 -1 -65 5
-90 27 -108 163 -28 207 41 23 112 18 142 -10z m-3883 -15 c14 -10 31 -36 39
-58 13 -36 12 -43 -5 -79 -49 -100 -186 -89 -214 17 -29 105 91 185 180 120z
m6740 4 c41 -21 60 -53 60 -100 0 -72 -42 -114 -113 -115 -43 0 -54 5 -83 34
-26 26 -34 42 -34 70 0 97 88 154 170 111z m11594 -9 c45 -19 66 -52 66 -102
0 -109 -145 -152 -201 -60 -43 70 -13 142 71 169 24 8 29 8 64 -7z m-19258
-210 c29 -29 34 -41 34 -80 0 -116 -149 -159 -210 -61 -24 39 -25 75 -5 115
21 42 53 60 103 60 37 0 50 -6 78 -34z m10498 14 c33 -12 66 -66 66 -105 0
-39 -33 -93 -66 -105 -52 -20 -94 -12 -131 25 -33 33 -35 38 -31 87 9 87 79
130 162 98z m5851 -45 c39 -40 46 -84 20 -134 -14 -29 -68 -61 -102 -61 -30 0
-81 37 -98 71 -38 72 21 159 107 159 29 0 45 -7 73 -35z m-8903 -54 c30 -27
33 -35 33 -85 0 -74 -30 -107 -104 -114 -47 -4 -53 -2 -86 31 -31 31 -35 41
-35 85 0 45 4 53 35 81 49 43 111 44 157 2z m5948 14 c42 -21 60 -53 60 -103
0 -37 -6 -50 -34 -78 -26 -26 -42 -34 -70 -34 -52 0 -90 23 -111 66 -22 46
-14 92 23 126 44 41 83 48 132 23z m-8459 -21 c29 -15 59 -65 59 -100 0 -31
-33 -85 -61 -99 -83 -43 -179 15 -179 107 0 32 35 87 63 98 35 14 85 11 118
-6z m-1851 -69 c35 -34 45 -83 26 -128 -19 -47 -51 -67 -107 -67 -57 0 -94 26
-110 79 -33 111 107 197 191 116z m-4728 5 c105 -29 104 -192 -1 -220 -32 -8
-48 -7 -75 4 -92 39 -94 172 -3 211 39 17 34 17 79 5z m20288 -67 c87 -78 9
-218 -104 -189 -78 19 -105 129 -47 187 41 40 107 41 151 2z m-8484 -74 c35
-33 48 -81 34 -124 -17 -50 -53 -75 -110 -75 -58 0 -95 26 -111 79 -32 107
106 196 187 120z m-8317 -14 c76 -39 73 -168 -5 -203 -102 -47 -206 53 -158
153 28 60 101 82 163 50z m13922 -58 c27 -17 49 -62 49 -102 0 -29 -8 -45 -34
-71 -29 -29 -41 -34 -81 -34 -121 0 -154 157 -45 213 36 18 77 15 111 -6z
m-8313 -22 c20 -14 32 -25 27 -25 -5 0 -4 -5 3 -12 7 -7 12 -34 12 -61 0 -40
-5 -53 -29 -77 -16 -16 -27 -31 -25 -32 2 -2 -13 -2 -34 0 -35 3 -36 2 -18
-12 11 -9 15 -16 10 -16 -6 0 -15 5 -21 11 -6 6 -17 11 -24 13 -47 7 -96 74
-93 127 1 29 35 83 62 99 32 18 91 11 130 -15z m5489 -6 c94 -79 5 -238 -112
-199 -68 22 -96 101 -61 168 30 57 121 73 173 31z m-13202 7 c133 -56 55 -259
-82 -213 -50 17 -78 58 -77 113 1 49 21 79 69 100 39 17 49 17 90 0z m5614
-98 c31 -31 33 -35 29 -91 -4 -47 -9 -63 -28 -77 -12 -9 -20 -22 -16 -28 3 -6
1 -14 -5 -18 -7 -4 -9 -3 -5 4 3 6 2 13 -4 17 -5 3 -10 2 -10 -4 0 -5 -10 -8
-22 -5 -13 2 -37 5 -53 6 -22 1 -38 11 -58 37 -24 30 -28 44 -26 86 4 72 40
104 120 105 38 0 51 -5 78 -32z m4703 -127 c22 -25 28 -41 28 -77 0 -39 -5
-51 -34 -80 -28 -28 -42 -34 -76 -34 -76 0 -129 62 -117 136 11 66 54 96 127
90 34 -3 51 -11 72 -35z m-6199 -16 c30 -19 52 -83 42 -123 -3 -13 -19 -37
-35 -53 -23 -23 -37 -29 -72 -29 -66 0 -83 8 -107 51 -17 30 -21 48 -16 77 8
45 21 64 63 90 37 22 78 18 125 -13z m-2543 -32 c59 -53 48 -153 -20 -188 -82
-42 -170 14 -170 111 0 28 8 44 34 70 29 29 41 34 80 34 36 0 52 -6 76 -27z
m14142 -66 c25 -32 24 -107 -3 -141 -36 -46 -124 -51 -170 -10 -41 37 -41 126
-1 167 44 43 134 35 174 -16z m-2742 15 c58 -59 45 -153 -27 -187 -77 -37
-163 14 -163 95 0 78 41 119 118 120 35 0 49 -6 72 -28z m-4964 -4 c-1 -7 -5
-18 -9 -25 -4 -6 -3 -15 3 -18 7 -4 10 -36 9 -76 -2 -75 -13 -92 -62 -104 -16
-4 -26 -13 -24 -19 3 -6 -7 -11 -23 -11 -16 0 -26 3 -23 8 2 4 -3 7 -12 7 -9
0 -32 16 -51 35 -30 31 -34 33 -34 15 0 -12 4 -19 9 -16 5 3 14 -1 21 -9 9
-10 9 -15 1 -15 -6 0 -11 6 -11 13 0 9 -2 9 -9 -1 -14 -22 -20 9 -15 70 7 82
8 86 37 116 32 34 102 42 139 18 16 -10 28 -12 38 -6 8 5 11 10 7 10 -5 0 -5
5 -2 10 8 14 14 13 11 -2z m-28153 -28 c9 0 17 -3 17 -8 0 -4 -65 -72 -145
-152 l-144 -144 -32 29 c-17 17 -29 24 -27 16 2 -8 -8 -15 -25 -18 -19 -2 -26
0 -22 7 3 6 11 7 17 4 8 -5 9 -1 5 10 -4 10 -3 15 3 11 6 -3 10 0 10 9 0 8 57
70 126 139 l126 124 37 -13 c20 -7 44 -13 54 -14z m23406 -165 c61 -31 75
-126 27 -182 -32 -37 -112 -44 -155 -14 -17 12 -34 33 -37 47 -3 13 -10 22
-14 19 -5 -3 -12 0 -16 6 -4 8 -3 9 4 5 8 -5 12 2 12 19 0 87 98 142 179 100z
m7156 -9 c58 -25 85 -113 49 -164 -8 -12 -12 -27 -9 -32 4 -6 3 -9 -2 -8 -4 1
-25 -4 -47 -11 -32 -11 -46 -11 -80 0 -22 7 -45 11 -51 10 -5 -1 -7 1 -3 4 4
4 1 17 -7 29 -20 28 -19 106 1 135 17 24 66 50 97 51 10 0 33 -6 52 -14z
m2563 -113 c36 -23 55 -76 42 -122 -5 -21 -18 -45 -28 -54 -97 -88 -243 18
-185 133 33 64 108 83 171 43z"/>
<path d="M55655 15028 c-3 -7 -4 -211 -3 -453 l3 -440 360 0 360 0 0 450 0
450 -358 3 c-281 2 -359 0 -362 -10z"/>
<path d="M58270 14585 l0 -455 360 0 360 0 0 455 0 455 -360 0 -360 0 0 -455z"/>
<path d="M18976 10081 c-131 -131 -234 -241 -229 -244 5 -3 15 -2 23 4 38 23
131 -7 147 -47 6 -16 101 -64 127 -64 9 0 24 -4 34 -10 22 -13 74 -34 87 -35
6 0 16 -4 23 -8 7 -5 22 -5 33 -2 16 5 19 4 14 -6 -6 -9 -3 -11 8 -6 10 3 17
2 17 -3 0 -6 14 -10 30 -10 17 0 30 -5 30 -11 0 -6 9 -9 20 -6 11 3 20 1 20
-3 0 -8 50 -24 75 -25 6 0 13 -4 16 -9 4 -4 17 -2 30 5 23 12 23 11 9 -6 -14
-17 -14 -17 7 -7 30 16 38 15 23 -3 -7 -9 -10 -18 -6 -22 3 -3 6 -1 6 5 0 7 7
12 16 12 8 0 13 -3 11 -7 -3 -5 16 -9 41 -11 26 -2 54 -10 62 -17 9 -8 33 -16
53 -17 25 -2 37 -8 37 -18 0 -11 2 -12 8 -3 4 7 28 15 52 18 30 5 40 3 31 -3
-11 -8 -11 -10 0 -15 10 -4 9 -6 -3 -6 -9 -1 -18 5 -21 12 -2 6 -8 9 -12 5
-16 -15 5 -21 77 -24 40 -2 87 -5 103 -6 24 -2 30 1 29 15 -2 17 -1 17 17 1
23 -20 24 -25 5 -18 -17 6 -29 -23 -14 -32 7 -5 8 -2 3 6 -6 10 -4 12 8 7 10
-3 17 -2 17 4 0 6 5 7 10 4 19 -12 10 4 -21 34 -17 17 -35 28 -41 25 -7 -4 -8
-2 -4 5 5 7 -16 35 -51 71 -32 32 -202 205 -378 384 -175 180 -324 326 -330
326 -5 0 -118 -107 -249 -239z"/>
<path d="M21438 9662 c-95 -96 -167 -172 -160 -168 6 4 19 0 28 -9 11 -11 20
-13 28 -5 7 5 15 9 17 7 2 -1 -2 3 -9 10 -8 6 -20 9 -28 6 -8 -3 -14 0 -14 6
0 6 7 11 16 11 9 0 12 5 8 13 -4 6 -4 9 1 5 4 -4 13 -4 19 1 6 5 20 5 31 0
l20 -8 -20 -1 c-11 -2 -23 -2 -27 -1 -5 0 -8 -3 -8 -9 0 -12 -21 -11 255 -16
347 -6 345 -6 334 -25 -11 -21 -1 -31 21 -19 10 5 21 6 26 2 5 -4 -3 5 -16 20
-20 22 -35 28 -75 30 l-50 1 43 4 c23 2 42 8 42 14 0 5 -4 8 -9 7 -5 -2 -23
16 -40 39 -17 24 -36 42 -43 40 -7 -1 -12 5 -13 13 0 8 -6 14 -13 13 -7 -2
-11 1 -9 5 1 5 -39 49 -90 99 l-92 90 -173 -175z"/>
<path d="M16638 9284 c-11 -10 71 -82 90 -79 9 1 11 0 5 -2 -7 -3 -13 -7 -13
-10 0 -2 127 -133 282 -289 240 -241 284 -282 297 -271 14 10 14 10 3 -4 -10
-13 -10 -18 1 -27 10 -8 20 -3 42 20 17 18 29 37 27 42 -2 6 0 8 4 3 4 -4 24
9 45 29 32 31 35 38 26 58 -13 26 -55 47 -107 52 -19 2 -48 5 -65 6 -35 4
-131 52 -138 70 -4 10 -10 8 -20 -5 -8 -10 -18 -14 -21 -9 -3 6 1 12 9 16 25
9 19 54 -7 59 l-23 4 23 2 c36 2 26 29 -15 40 -21 6 -45 11 -53 11 -12 0 -13
2 -1 9 11 7 9 11 -8 21 -12 6 -26 22 -31 36 -11 29 -30 32 -30 5 0 -30 -11
-52 -22 -45 -6 4 -5 10 3 15 18 11 -13 45 -47 52 -21 4 -24 1 -18 -16 5 -17 4
-18 -9 -6 -8 8 -12 18 -9 23 3 5 -1 7 -9 4 -15 -6 -42 16 -32 26 11 11 24 6
17 -6 -4 -7 -3 -8 4 -4 6 4 8 14 5 24 -5 13 -65 92 -99 131 -9 10 -32 -22 -27
-36 9 -23 -30 0 -54 32 -10 15 -22 23 -25 19z"/>
<path d="M20885 6930 c26 -27 52 -47 57 -44 5 3 7 1 6 -4 -2 -5 41 -56 95
-112 l97 -103 25 23 c13 13 22 27 18 33 -3 6 -2 7 4 4 5 -3 33 18 62 47 37 38
49 56 40 61 -8 5 -10 4 -5 -3 7 -11 -31 -34 -59 -36 -5 -1 -10 -6 -10 -13 0
-6 -2 -14 -5 -17 -4 -3 -6 5 -6 19 0 13 3 22 7 19 4 -2 10 0 14 6 3 5 16 10
28 10 20 1 21 1 4 11 -10 6 -29 8 -43 5 -16 -4 -24 -2 -24 6 -1 17 -69 48
-104 48 -16 0 -25 4 -21 10 4 6 -8 10 -29 10 -19 0 -41 7 -50 15 -20 20 -36
19 -36 -2 0 -14 -3 -13 -16 5 -9 13 -22 21 -29 18 -7 -2 -16 2 -19 10 -3 9
-10 12 -16 9 -5 -3 -10 -1 -10 4 0 6 -5 11 -12 11 -7 0 10 -22 37 -50z"/>
<path d="M23870 5861 c0 -10 15 -32 33 -48 17 -17 113 -113 212 -214 99 -101
308 -313 463 -471 156 -158 281 -292 277 -298 -3 -5 1 -10 9 -10 9 0 30 -16
47 -35 18 -19 37 -35 43 -35 13 0 596 582 596 594 0 5 -8 2 -17 -5 -15 -11
-14 -10 1 9 20 23 32 30 21 12 -17 -27 14 -5 45 32 19 23 28 38 20 33 -8 -5
-22 -8 -32 -7 -9 2 -23 -7 -31 -18 -11 -15 -16 -18 -19 -8 -3 7 2 19 11 26 14
12 14 13 -1 8 -10 -3 -18 -1 -18 5 0 6 -4 8 -9 5 -16 -10 -164 15 -201 34 -36
18 -105 35 -128 31 -8 -1 -25 5 -39 14 -20 13 -27 14 -33 5 -6 -10 -15 -9 -40
4 -18 8 -36 13 -41 10 -5 -2 -19 2 -33 11 -13 9 -30 15 -38 14 -7 -2 -46 5
-86 15 -40 10 -76 16 -79 13 -3 -4 -20 4 -37 17 -17 13 -50 27 -73 31 -24 4
-43 10 -43 14 0 4 -8 7 -17 7 -10 1 -45 9 -78 18 -32 9 -72 16 -87 16 -15 0
-28 5 -28 10 0 6 -9 10 -20 10 -11 0 -20 7 -20 15 0 8 -9 15 -20 15 -11 0 -20
-4 -20 -10 0 -5 -9 -10 -20 -10 -13 0 -20 7 -20 20 0 17 -7 20 -39 20 -22 0
-41 5 -43 10 -4 12 -131 50 -193 57 -22 3 -44 9 -49 14 -13 12 -29 12 -21 0 3
-5 1 -12 -4 -15 -5 -3 -11 3 -14 14 -3 11 -12 20 -21 20 -9 0 -16 6 -16 13 0
8 -4 7 -11 -3 -8 -11 -12 -12 -16 -2 -7 19 -23 14 -23 -7z"/>
<path d="M26441 5183 c12 -12 26 -20 32 -16 6 3 7 1 3 -5 -8 -14 22 -44 36
-36 7 4 8 2 4 -4 -4 -7 115 -135 297 -319 167 -170 355 -361 418 -427 l115
-118 275 277 c151 153 290 292 309 311 l34 33 -32 -5 c-20 -3 -32 -1 -32 6 0
7 -5 10 -12 8 -6 -2 -25 10 -41 26 -18 19 -27 24 -23 14 3 -10 1 -18 -4 -18
-6 0 -10 7 -10 15 0 8 -7 15 -15 15 -8 0 -15 -4 -15 -8 0 -13 -118 4 -143 20
-12 8 -49 18 -82 22 -33 3 -85 11 -115 16 -30 4 -92 14 -137 21 -61 8 -83 15
-83 26 0 9 -6 13 -14 10 -8 -3 -30 -1 -48 5 -18 6 -75 14 -127 17 -85 6 -95 9
-117 34 -26 31 -34 33 -34 12 0 -8 -4 -15 -10 -15 -5 0 -10 7 -10 16 0 14 -8
16 -47 11 -31 -4 -41 -3 -28 3 15 7 9 9 -26 9 -25 1 -82 12 -125 26 -43 14
-98 25 -122 25 -24 0 -41 4 -38 8 3 5 -8 8 -25 8 l-29 0 21 -23z"/>
<path d="M60645 13116 c-59 -27 -77 -46 -104 -106 -76 -168 79 -348 259 -301
98 26 160 106 160 209 0 169 -161 271 -315 198z"/>
<path d="M55730 13040 l0 -100 100 0 c145 0 199 27 200 98 0 76 -50 102 -200
102 l-100 0 0 -100z"/>
<path d="M55730 12805 l0 -107 130 4 c111 3 133 7 157 24 34 25 49 78 34 116
-18 47 -62 61 -198 66 l-123 4 0 -107z"/>
<path d="M56640 13035 c-64 -139 -83 -185 -78 -191 3 -2 60 -3 126 -2 l122 3
-53 115 c-29 63 -58 126 -64 140 -10 24 -13 20 -53 -65z"/>
<path d="M59767 13133 c-4 -3 -7 -64 -7 -136 l0 -129 113 4 c97 3 116 6 144
26 88 62 57 204 -51 231 -49 12 -189 15 -199 4z"/>
<path d="M63190 12920 l0 -223 114 5 c100 5 119 8 165 34 74 40 106 96 106
185 0 55 -5 73 -30 114 -47 76 -99 98 -241 103 l-114 5 0 -223z"/>
</g>
</svg>
